<?xml version="1.0" encoding="utf-8"?>
<!-- Generator: Adobe Illustrator 25.2.1, SVG Export Plug-In . SVG Version: 6.00 Build 0)  -->
<svg version="1.1" id="flag-icon-css-es" xmlns="http://www.w3.org/2000/svg" xmlns:xlink="http://www.w3.org/1999/xlink" x="0px"
	 y="0px" viewBox="0 0 640 480" style="enable-background:new 0 0 640 480;" xml:space="preserve">
<style type="text/css">
	.st0{fill:#AF361E;}
</style>
<path class="st0" d="M322.2,478c-71.6,0-143.2,0-214.9,0c-16.5,0-24.7-8.2-24.7-24.7c0-141.7,0-283.3,0-425c0-16,8.2-24.3,24.2-24.3
	c143.5,0,287.1,0,430.6,0c16.4,0,24.9,8.4,24.9,24.7c0,141.5,0,283,0,424.5c0,13.4-6.5,22.3-17.9,24.4c-2.4,0.4-4.9,0.4-7.3,0.4
	C465.4,478,393.8,478,322.2,478z M289.7,413.5c4.9,9.3,6.1,10,16.7,9.9c2.1,0,2.2,1.3,2.8,2.6c4.1,9.6,12.7,13,22.3,8.5
	c1.9-0.9,2.9-0.8,4.3,0.9c9.1,10.6,22.5,10.1,30.2-1.3c1.4-2.1,2.3-2.1,4.3-0.8c12,7.5,25.3,2.9,30-10.4c0.9-2.6,1.8-2.9,4.3-2.2
	c16.3,4.5,30-7.1,28.4-24c-0.3-2.8,0.4-3.7,3.2-4c14.5-1.6,24-11.1,25-25.7c0.3-3.9,0.3-7.1,4.8-8.7c2.3-0.8,3.7-3.2,4.5-5.6
	c0.7-2.3,1.8-2.6,4.1-2.2c9.8,1.4,17.4-4.7,18.1-14.5c0.2-2.8,1.2-3.5,3.7-3.9c12.4-2.1,18.9-13.8,14.1-25.4c-1-2.5-0.9-3.5,1.7-4.8
	c12.8-6.5,15.8-20.5,6.8-31.5c-1.5-1.9-1.6-2.7,0.2-4.5c12.1-12.3,9.1-29.4-6.6-37c-2.2-1.1-2.1-1.8-1.2-3.8
	c7.5-15.5,2.2-30.3-13.6-37.6c-2-0.9-2.5-1.7-1.9-3.8c1.1-3.9,0.6-7.9-2.1-11c-1.9-2.1-1.9-3.4,0-5.7c6.1-7.6,4.6-17.4-3.5-22.8
	c-2.3-1.5-2.1-2.7-1.2-4.9c4.7-11.8-2.1-23.6-14.7-25.3c-3.5-0.4-3.7-1.8-3.5-4.7c0.7-13.4-10.2-23-23.5-20.6
	c-2.5,0.4-3.4,0.2-4.1-2.6c-3.9-16.9-21.2-23.3-35.3-13.2c-2.2,1.6-2.9,1.1-4.2-0.9c-10.6-15.7-29-17.3-42.3-3.6
	c-1.8,1.9-2.3,1.7-3.4-0.5c-3.2-6.2-7.8-8.5-14.6-7.2c-2.2,0.4-2.9-0.1-3.7-2.1c-4-9.6-12.5-13.1-21.8-8.9c-2.2,1-3.1,0.7-4.6-1.1
	c-8.5-10.4-22.4-9.8-30,1.3c-1.3,1.9-2,2.5-4.2,1.1c-12.5-8.1-25.8-3.3-30.7,10.8c-0.8,2.3-1.6,2.5-3.7,1.9
	c-17.4-5.6-31.9,10.1-28.6,24c0.6,2.5-0.4,3.1-2.8,3.4c-16.6,2.1-25.6,12.7-25.1,29.4c0.1,2-0.1,3.2-2.3,3.9
	c-3.6,1.3-6.1,3.9-7.3,7.5c-0.7,2.3-1.7,2.6-4.1,2.3c-10-1.5-17.6,4.6-18.3,14.6c-0.2,2.4-0.9,3.1-3.2,3.4
	c-12.7,1.7-19.6,14-14.4,25.7c1.2,2.6,0.9,3.5-1.8,4.7c-12.8,5.9-15.9,20.5-6.7,31.3c1.6,1.9,1.6,2.7-0.2,4.4
	c-12.2,11.9-9.2,29.7,6,36.7c2.4,1.1,2.9,1.8,1.7,4.4c-7.3,15.1-1.6,30.7,13.6,37.4c2,0.9,2.7,1.7,2,3.8c-1.3,4.3-0.3,8.4,2.7,11.7
	c1.6,1.7,1.1,2.7-0.2,4.3c-6.7,8-5.6,17.5,2.9,23.6c1.9,1.4,2.2,2.3,1.3,4.5c-5,12.3,1.9,24.2,15,25.8c2.9,0.4,3.8,1,3.6,4.1
	c-0.9,13.7,9.9,23.3,23.5,21c2.6-0.5,3.5,0.2,4.1,2.7c4.3,16.5,20.5,22.6,34.8,13.1c2.2-1.5,3-1.1,4.3,0.9c4,6.6,9.9,10.8,17.6,12.2
	C273.6,426,282.4,422.3,289.7,413.5z"/>
<path class="st0" d="M354.3,248.7c3-1.3,4.2,0.2,5.6,2.7c3.1,5.6,9.2,7.8,15.6,5.8c2.5-0.8,3.5-0.5,4.5,1.9c2,4.8,6,7.3,11.1,7.7
	c2.9,0.2,4.1,1,4.3,4.3c0.4,8.3,4.9,14,12.9,16.6c2.4,0.8,3.1,1.7,2.7,4.2c-1.5,8.1,1.1,14.8,7.5,19.9c1.8,1.4,2.2,2.4,1,4.6
	c-4.3,7.9-3.9,15.8,1,23.3c1.3,2,1.3,3-0.7,4.5c-10.4,7.5-13.9,17.6-10.6,29.9c0.7,2.5,0.4,3.5-2.3,4.2c-9.2,2.2-15.2,7.9-17.1,17.3
	c-0.5,2.5-1.5,2.8-3.9,2.4c-10-1.8-17.3,1.7-22.2,10.8c-1,1.8-1.6,2.6-3.8,1.3c-6.7-4-13.5-3.7-19.9,0.8c-1.8,1.3-2.7,1.2-4.2-0.5
	c-5-5.7-11.3-7.1-18.4-4.3c-1.3,0.5-2.4,1-3.2-0.7c-0.7-1.5-0.2-2.4,1.1-3.2c6.7-4.2,10.4-10.3,10.9-18.2c0.2-2.9,2.2-2.5,4-2.8
	c10.3-1.7,17.3-9.4,17.9-19.2c0.2-3.4-2.4-7-1-9.6c1.3-2.4,5.4-2.8,7.7-5.1c6.4-6.3,7.4-15.5,2.2-24.2c-1.3-2.1-1.4-3.1,0.5-5
	c6.8-6.6,6.4-16.2-0.9-22.3c-1.7-1.5-2.1-2.3-1-4.5c3.7-7.1,1.6-13.8-5.4-18.2c-1.5-0.9-2.6-1.6-2-3.6c0.9-3.2,0-6-2.3-8.3
	c-0.4-0.4-1.1-0.9-1.1-1.3c0.4-3,3.1-4.7,4.1-7.4C349.8,250.3,350.1,246.7,354.3,248.7z"/>
<path class="st0" d="M292.6,235c-2.3,0.7-2.5-0.7-3-1.6c-4.1-7.1-9.2-9.3-17-7.1c-1.9,0.5-2.8,0.6-3.6-1.4
	c-2.2-5.4-6.7-7.8-12.3-8.1c-2.6-0.1-3.3-1-3.4-3.6c-0.3-8.6-4.6-14.4-12.7-17.1c-2.5-0.8-2.9-1.8-2.5-4.3c1.4-8-1.1-14.8-7.5-20
	c-1.8-1.4-2.2-2.4-1-4.6c4.2-7.9,3.9-15.8-1.1-23.3c-1.4-2-1.2-2.9,0.8-4.4c10.3-7.4,13.9-17.7,10.5-30c-0.7-2.6-0.3-3.5,2.4-4.1
	c9.3-2.2,15-8.2,17.1-17.5c0.5-2.4,1.5-2.9,3.8-2.4c9.9,1.7,17.3-1.8,21.9-10.6c1.2-2.2,2-2.4,4.1-1.2c6.6,3.8,13.3,3.5,19.5-0.9
	c2-1.4,2.9-1.3,4.6,0.5c5.8,6.4,10.5,7.4,18.5,4.1c1.1-0.4,2.1-1.3,2.9,0.2c0.7,1.4,1,2.6-0.7,3.7c-6.7,4.2-10.4,10.2-11,18.1
	c-0.2,2.2-1.4,2.4-3.1,2.7c-14.7,2.3-21.7,12.7-18,27c0.6,2.2,0,2.9-1.8,3.9c-11.2,5.8-14.3,17.1-7.4,27.5c1.2,1.8,1.2,2.6-0.4,4.2
	c-7.6,7.2-7.3,16.3,0.5,23.2c1.6,1.4,1.8,2.3,0.8,4.3c-3.7,7.5-1.6,14,5.5,18.5c0.4,0.2,0.8,0.4,1.1,0.6c0.4,0.3,2.3,13.3,2.1,13.8
	c-0.8,1.5-2.1,3-2.4,4.6C299,234.4,296.1,235.6,292.6,235z"/>
<path class="st0" d="M337.6,296.3c-0.5,0.7-0.9,1.3-1.3,1.8c-3.6,4.8-4.2,10.1-1.6,15.5c1,2.2,0.5,3.1-1.5,4.3
	c-7.5,4.4-10.6,11.1-9,19.7c0.5,2.5-0.1,3.5-2.5,4.3c-7.8,2.6-12.4,8.1-13.9,16.2c-0.4,2.2-1.2,2.8-3.4,2.9
	c-9,0.1-15.7,4.2-19.9,12.2c-1.1,2.1-2,2.1-4,1.2c-12.3-5.7-22.4-3.9-32.2,5.8c-1.8,1.8-2.5,1.4-3.9-0.3c-6.3-7.3-14.3-9.4-23.4-7.1
	c-2.3,0.6-3.2,0.2-4-2.1c-3.4-9.9-9.8-14.5-20-14.4c-2.2,0-3-0.2-3-2.7c0.3-7.9-3.2-13.9-10.2-17.6c-1.7-0.9-2.2-1.8-1.5-3.7
	c2.4-7.1,0.4-13-5.1-17.9c-0.7-0.6-2.2-1.1-1.3-2.3c0.8-1.1,1.8-0.1,2.6,0.5c7.7,5.7,15.8,6.5,24.4,2.3c1.7-0.8,2.5-0.2,3.5,1.1
	c9.4,11.7,21.7,12.7,32.3,2.4c1.6-1.6,2.5-1.5,4.3-0.3c10.6,7.1,22.2,4.1,28-7.2c1.1-2.2,1.9-2.8,4.5-2.1
	c9.1,2.4,16.6-2.2,18.7-11.2c0.6-2.4,1.2-3.5,4.1-3.6c8.1-0.3,13.1-5.9,13.1-14.1c0-2.1,0.1-3.5,2.4-4.4c2.3-0.9,3.9-2.8,4.2-5.1
	c0.4-2.9,1.7-3.7,4.3-3c0.7,0.2,1.5,0.3,2.1,0.1c6.2-2.1,7.9,2.5,10.1,6.5c0.7,1.2,0,1.9-0.4,2.7c-3.9,7.8-3.3,11.8,2.5,18.2
	C336.7,295.4,337.1,295.8,337.6,296.3z"/>
<path class="st0" d="M473.4,171.7c-1.4,0.7-2-0.4-2.8-0.9c-7.4-5.5-15.2-6.5-23.6-2.6c-2.3,1.1-3.4,0.8-4.9-1.2
	c-8.2-10.9-21.8-11.8-31.4-2.2c-1.8,1.8-2.8,2-5,0.6c-10.2-6.6-22.1-3.3-27.2,7.6c-1.2,2.6-2.2,2.7-4.8,1.9
	c-8.3-2.8-17.4,2.7-18.9,11.4c-0.4,2.4-1.1,3.3-3.7,3.4c-8.4,0.4-13.5,6.2-13.1,14.5c0.1,2-0.1,3.4-2.2,3.9
	c-0.5,0.1-1.3,0.4-1.5,0.9c-3.3,7.3-10.1,3.6-15.3,4.8c-2.4,0.6-5.3-4.1-4-6.3c4-6.8,3.3-12.9-2.4-18.3c-1.3-1.2-1-2.1,0-3.3
	c3.9-4.9,4.1-10.3,1.5-15.8c-1-2-0.6-3,1.4-4.1c8-4.5,11.1-11.4,9.5-20.3c-0.4-2.2,0.1-3,2.2-3.7c7.7-2.6,12.5-8.1,13.9-16.1
	c0.4-2.2,1.3-2.8,3.4-2.8c9.1-0.2,16-4.2,20.2-12.4c1.1-2.1,2.1-2.1,4-1.2c11.8,5.5,22.4,3.6,31.6-5.6c1.9-1.9,2.7-1.6,4.3,0.2
	c6.2,7.1,14,9.4,23,7c2.9-0.7,3.6,0,4.4,2.6c2.8,9.1,9.9,14.2,19.5,14c3.1-0.1,3.9,0.7,3.8,3.8c-0.1,7.3,3.3,12.7,9.7,16.2
	c1.6,0.9,2.9,1.5,2,3.9c-2.6,7.4-0.7,13.6,5.4,18.4C473,170.2,473.7,170.6,473.4,171.7z"/>
<path class="st0" d="M189,148.6c-0.7,5.4-1.3,9.5-0.1,13.6c1.5,5.2,4.3,9.5,8.8,12.4c2.1,1.4,2.4,2.5,1.4,4.9
	c-5.4,13.1,1.4,25.6,15.4,28.5c2.3,0.5,3,1.2,2.9,3.6c-0.3,12.9,7.6,20.6,20.4,19.8c2.5-0.2,3.4,0.6,4.1,3c2.7,9.2,11,13.3,20,9.9
	c2.2-0.8,3.2-0.5,4.6,1.3c4.7,6.3,11.4,7.6,18.3,3.7c1.7-1,2.9-1.4,4.5,0.2c2,2,4.6,2.6,7.2,1.7c2.4-0.8,3.8-0.2,4.7,2.1
	c0.2,0.7,0.8,1.2,1.1,1.9c0.9,1.8,3.7,3.2,3,4.9c-0.9,2.3-3.1,4-4,6.5c-0.4,1.2-1.8,0.6-2.7,0.6c-7.4,0-11.9,3.2-13.9,10.4
	c-0.6,2.3-1.5,3-3.9,2.8c-6-0.5-10.7,1.8-13.9,6.9c-1.1,1.8-2,1.9-3.8,0.9c-7.9-4.4-15.5-3.7-22.3,2.3c-1.5,1.4-2.5,1.3-4,0
	c-6.2-5.6-13.3-7.1-21.2-4.2c-2.1,0.8-3,0-4.1-1.7c-4.5-7.8-11.4-11.6-20.4-11.3c-2.4,0.1-3.2-0.6-3.5-3
	c-1.6-13.4-8.2-20.9-21.3-24.4c-2-0.5-2.6-1.1-1.9-3.2c3.1-9.4,1.2-17.6-6.1-24.4c-1.4-1.3-1.2-2.1,0-3.5c7.7-9,8.4-15.7,2.6-25.9
	c-1.1-1.9-0.8-2.7,1-3.6c6.8-3.7,10.2-9.6,9.9-17.4c-0.1-1.7,0-3,2.2-3.4c7.7-1.5,12.1-6.3,13.4-13.9
	C187.5,150.3,187.9,150,189,148.6z"/>
<path class="st0" d="M460.7,334.7c-1.7-1.5-0.7-2.7-0.5-3.9c1.2-8.9-1.8-16.2-9-21.6c-1.9-1.5-2.9-2.4-1.8-5.1
	c4.7-12.1-1.4-23.8-14-27.3c-2.7-0.7-3.1-1.7-2.8-4.4c1.5-12.9-8.5-22.4-21.3-20.5c-2.5,0.4-3.4,0-4.2-2.5
	c-2.8-9.5-10.9-13.5-20.3-10c-2.1,0.8-2.9,0.3-4.2-1.4c-5-6.7-11.8-8-19-3.8c-1.2,0.7-13.2-2.6-13.8-3.8c-0.9-1.6-1.6-3.5-2.8-4.8
	c-2.3-2.5-1.5-4.6-0.4-7.3c1.2-2.9,3.3-1.7,5-1.8c5.9-0.4,10.7-4,12.5-10.3c0.7-2.4,1.5-3.1,4.1-2.9c5.6,0.4,10.2-1.9,13.2-6.6
	c1.3-2,2.1-2.4,4.4-1.1c7.9,4.4,15.3,3.7,21.9-2.1c2-1.7,3-1.7,4.9,0c5.7,5.1,12.5,6.4,19.7,4c2.7-0.9,3.7-0.2,5,2
	c4.3,7.2,10.9,11.1,19.3,10.8c3.3-0.1,4,1,4.3,4.1c1.3,12.2,8.6,20.3,20.6,23c2.6,0.6,3.3,1.3,2.4,4c-2.9,8.9-1,16.8,5.7,23.4
	c2.1,2,1.6,2.9-0.1,4.7c-6.7,7.1-7.6,16.3-2.3,24.6c1.4,2.2,1.6,3.1-1,4.4c-6.6,3.4-9.7,9.1-9.7,16.6c0,1.6,0.6,3.4-2,4
	c-7.7,1.6-11.9,6.5-13.2,14.2C461.5,333.7,461.1,334,460.7,334.7z"/>
</svg>
