<?xml version="1.0" encoding="utf-8"?>
<!-- Generator: Adobe Illustrator 25.2.1, SVG Export Plug-In . SVG Version: 6.00 Build 0)  -->
<svg version="1.1" id="flag-icon-css-gr" xmlns="http://www.w3.org/2000/svg" xmlns:xlink="http://www.w3.org/1999/xlink" x="0px"
	 y="0px" viewBox="0 0 640 480" style="enable-background:new 0 0 640 480;" xml:space="preserve">
<path d="M262.6,409c0,1,0,1.8,0,2.6c0.1,12.8-0.1,25.5,0.3,38.3c0.4,11.6-8.7,15.2-17.4,12.3c-15.7-5.2-30.6-12.2-44.7-20.8
	c-48.3-29.7-81.8-71.4-99.9-125.2c-9.6-28.6-13.3-58.1-11-88.2c4-54,24.2-101.2,61-140.9c31.8-34.4,70.7-56.9,116.3-67.8
	c25.1-6,50.4-7.6,76.1-4.9c54.2,5.7,100.7,27.7,139.4,66c33.9,33.6,55.5,74,64,121c11.6,64.8-1.6,124.4-40,177.9
	c-28.2,39.4-65.7,66.9-111.6,82.9c-1.7,0.6-3.7,0.9-5.5,1c-7.3,0.2-11.9-4.5-11.9-12c0.1-20.5,0.2-41.1,0.3-61.6
	c0-11.1-1.3-21.9-6.6-31.9c-2.2-4.2-5.3-8-8-12c3.6-0.5,7.7-1,11.8-1.7c15.1-2.5,29.8-6.5,43.4-13.7c21-11.1,35-28.1,42.2-50.7
	c6.6-20.7,8.7-42,5.6-63.6c-2.4-16.9-9.6-31.7-20.8-44.5c-1.2-1.3-1.3-2.4-0.7-4c5.4-16.3,4.8-32.7,0.3-49c-0.8-2.7-1.8-5.3-2.6-8.1
	c-0.5-1.6-1.5-2.1-3-2.3c-7-0.6-13.7,0.9-20.3,3c-13.8,4.4-26.3,11.4-38.3,19.4c-1.9,1.3-3.5,1.5-5.6,0.9
	c-24.1-6.3-48.5-8.3-73.3-6.2c-12.4,1.1-24.6,3-36.6,6.3c-1.8,0.5-3.1,0.2-4.6-0.8c-12.6-8.3-25.6-15.6-40.2-20
	c-6.1-1.8-12.4-3.2-18.9-2.6c-1,0.1-2.4,0.8-2.7,1.6c-7,18.1-9,36.6-3.4,55.4c1,3.4,0.7,5.5-1.6,8.2c-13.7,16.4-20.2,35.4-20.5,56.7
	c-0.2,16.6,1.5,33,6.6,48.9c8.6,26.7,26.2,45.2,52.1,55.8c13.8,5.6,28.2,8.7,43,10.5c0.9,0.1,1.7,0.2,2.6,0.4
	c-0.1,0.3-0.1,0.5-0.2,0.7c-7.9,7.5-11.7,17.2-13.5,27.7c-0.3,1.8-1,2.8-2.7,3.5c-11.1,4.4-22.4,6.6-34.3,3.9
	c-13.3-3-22.7-11.2-29.7-22.5c-4.7-7.5-10.3-14.1-17.6-19.1c-7.5-5.2-15.8-7.1-24.8-5.5c-0.8,0.1-1.6,0.4-2.3,0.7
	c-2.4,1.1-3.3,3.1-1.7,5.1c1.8,2.4,3.9,5.1,6.5,6.5c9.8,5.5,16,14.2,21.4,23.5c2.5,4.4,4.7,9,6.7,13.6c6,14,17,21.9,31.4,25.4
	c11.8,2.9,23.7,2.6,35.7,1.1C256,410,259,409.5,262.6,409z"/>
</svg>
