<?xml version="1.0" encoding="utf-8"?>
<!-- Generator: Adobe Illustrator 25.2.1, SVG Export Plug-In . SVG Version: 6.00 Build 0)  -->
<svg version="1.1" id="flag-icon-css-ro" xmlns="http://www.w3.org/2000/svg" xmlns:xlink="http://www.w3.org/1999/xlink" x="0px"
	 y="0px" viewBox="0 0 640 480" style="enable-background:new 0 0 640 480;" xml:space="preserve">
<style type="text/css">
	.st0{fill:#BDBCBC;}
	.st1{fill:#F38228;}
</style>
<path class="st0" d="M298.7,469.3c-57.3,0-114.6-0.2-171.9,0.2c-8.7,0.1-11.3-2.2-11.3-11.1c0.4-46.7,0.4-93.5,0-140.2
	c-0.1-8.4,1.7-11.6,10.9-11.5c29.6,0.4,29.6,0,29.6,29.6c0,27.1,0.3,54.1-0.2,81.2c-0.1,7.9,2.2,10.2,10.1,10.2
	c88.2-0.3,176.5-0.3,264.7,0c8.9,0,10.4-3.3,10.3-11.1c-0.3-33.4,0-66.8-0.3-100.2c-0.1-7.2,1.9-10.2,9.4-9.7
	c8.4,0.6,16.9,0.4,25.3,0.1c5.6-0.2,7.3,2.2,7.3,7.5c-0.1,48.9-0.2,97.7,0,146.6c0,8.6-5.1,8.4-11.1,8.4
	C414,469.3,356.4,469.3,298.7,469.3z"/>
<path class="st1" d="M298.3,347.2c30.6,0,61.1,0.2,91.7-0.1c7.7-0.1,11.9,1.1,10.9,10.2c-1.1,9.7,3.9,22.5-1.8,28.6
	c-6.3,6.7-19.3,2.2-29.3,2.2c-53.7,0.2-107.5-0.1-161.2,0.3c-8.7,0.1-13.2-1.3-11.9-11.3c1.2-9.3-3.8-21.5,1.8-27.5
	c6.2-6.6,18.6-2,28.2-2.1C250.5,346.9,274.4,347.2,298.3,347.2z"/>
<path class="st1" d="M378.4,14.5c3.4-0.2,4.3,2.4,5.7,4.3c37.8,50.7,75.6,101.5,113.4,152.1c3.4,4.6,2.7,7.1-1.8,10.1
	c-9,6-17.2,18.1-26.5,17.5c-9-0.6-13.6-14.7-19.8-23c-32.1-42.7-63.7-85.8-96-128.4c-5.3-7-6.6-11.3,2.2-16.1
	c6.7-3.7,12.5-9,18.8-13.6C375.7,16.4,377.1,15.4,378.4,14.5z"/>
<path class="st1" d="M247.3,164.3c1.6,0.8,3.6,1.7,5.5,2.5c56,26.2,112,52.5,168.2,78.3c7.2,3.3,7.6,6.4,4.3,12.5
	c-3.8,7.1-7.1,14.5-10.2,22c-2.1,4.8-4.3,6.1-9.5,3.6c-57.2-26.9-114.6-53.6-171.9-80.3c-3.2-1.5-6.6-2.4-4-7.5
	c4.6-9.1,8.7-18.4,13-27.7C243.5,165.9,244.1,163.5,247.3,164.3z"/>
<path class="st1" d="M215.2,257.4c35.4,7.4,70.4,14.8,105.5,22.1c26.8,5.6,53.5,11.4,80.4,16.7c6.7,1.3,8.9,3.5,6.7,10.4
	c-2.3,7-3.9,14.3-4.7,21.6c-0.9,8.5-5,9.1-12.1,7.5c-40.5-8.8-81-17.3-121.5-25.8c-18.9-4-37.8-8.1-56.7-11.6
	c-7.9-1.5-12-3.6-8.7-12.8c2.6-7.2,3.4-15,5-22.6C209.7,259.3,210.4,255.7,215.2,257.4z"/>
<path class="st1" d="M460.4,209c-2.4,3-4.4,5.8-6.8,8.4c-6.4,6.8-10.7,19.3-19,19.3c-7.1,0-14.4-9.9-21.4-15.7
	c-42.1-35-84-70.2-126.2-105c-6.2-5.1-7.6-8.7-1.5-14.7c5.2-5.1,9.9-10.9,14.2-16.9c3.8-5.2,6.5-5.2,11.5-1
	c41.8,35.3,83.9,70.3,126,105.3c6.2,5.2,12.4,10.3,18.6,15.5C457.4,205.5,458.7,207.2,460.4,209z"/>
</svg>
