<?xml version="1.0" encoding="utf-8"?>
<!-- Generator: Adobe Illustrator 25.2.1, SVG Export Plug-In . SVG Version: 6.00 Build 0)  -->
<svg version="1.1" id="b163acb8-d7e3-44ae-95e8-546cddd31e63"
	 xmlns="http://www.w3.org/2000/svg" xmlns:xlink="http://www.w3.org/1999/xlink" x="0px" y="0px" viewBox="0 0 1077.9 813"
	 style="enable-background:new 0 0 1077.9 813;" xml:space="preserve">
<style type="text/css">
	.st0{fill:#111111;}
	.st1{fill:#F2EEEB;}
	.st2{fill:#64211D;}
	.st3{fill:#A3362F;}
	.st4{fill:#A43831;}
	.st5{fill:#A43932;}
	.st6{fill:#531C19;}
	.st7{fill:#521C19;}
	.st8{fill:#A23933;}
	.st9{fill:#E6C7B7;}
	.st10{fill:#F1D7C8;}
	.st11{fill:#F7BC98;}
	.st12{fill:#CA9528;}
	.st13{fill:#C19981;}
	.st14{fill:#430000;}
	.st15{fill:#222E51;}
	.st16{fill:#FCBA32;}
	.st17{fill:#93705B;}
	.st18{fill:#F5BB97;}
	.st19{fill:#F6BB97;}
	.st20{fill:#D6846A;}
	.st21{fill:#C09981;}
	.st22{fill:#742722;}
	.st23{fill:#BFBCBA;}
	.st24{fill:#8A6953;}
	.st25{fill:#D09F80;}
	.st26{fill:#A2362F;}
	.st27{fill:#896752;}
	.st28{fill:#94705B;}
	.st29{fill:#B4896E;}
	.st30{fill:#752E25;}
	.st31{fill:#762F26;}
	.st32{fill:#8D6A55;}
	.st33{fill:#D8A485;}
	.st34{fill:#051133;}
	.st35{fill:#DBD7D4;}
	.st36{fill:#916D57;}
	.st37{fill:#8B6A55;}
	.st38{fill:#805F4A;}
	.st39{fill:#482E16;}
	.st40{fill:#866551;}
	.st41{fill:#C7977B;}
	.st42{fill:#84644F;}
	.st43{fill:#EAE7E4;}
	.st44{fill:#471815;}
	.st45{fill:#4B3119;}
	.st46{fill:#3C240B;}
	.st47{fill:#461714;}
	.st48{fill:#C49679;}
	.st49{fill:#BF9175;}
	.st50{fill:#8E6C57;}
	.st51{fill:#3D250C;}
	.st52{fill:#62452E;}
	.st53{fill:#66472D;}
	.st54{fill:#CF9E7F;}
	.st55{fill:#6E503B;}
	.st56{fill:#462D14;}
	.st57{fill:#8A6853;}
	.st58{fill:#5F432B;}
	.st59{fill:#4B3118;}
	.st60{fill:#4E341C;}
	.st61{fill:#72543F;}
	.st62{fill:#78573F;}
	.st63{fill:#493017;}
	.st64{fill:#A17A62;}
	.st65{fill:#712921;}
	.st66{fill:#442B12;}
	.st67{fill:#6E503A;}
	.st68{fill:#3E260D;}
	.st69{fill:#412810;}
	.st70{fill:#6F271F;}
	.st71{fill:#5D412A;}
	.st72{fill:#432B15;}
	.st73{fill:#3E260E;}
	.st74{fill:#AC8267;}
	.st75{fill:#5F4532;}
	.st76{fill:#4B321B;}
	.st77{fill:#657596;}
	.st78{fill:#14171E;}
	.st79{fill:#273251;}
	.st80{fill:#2A3554;}
	.st81{fill:#5E1F1B;}
	.st82{fill:#050404;}
	.st83{fill:#050403;}
	.st84{fill:#783128;}
	.st85{fill:#916D58;}
	.st86{fill:#926E58;}
	.st87{fill:#8C6954;}
	.st88{fill:#926F59;}
	.st89{fill:#936F5A;}
	.st90{fill:#8B6852;}
	.st91{fill:#8F6B56;}
	.st92{fill:#7A332A;}
	.st93{fill:#9F7961;}
	.st94{fill:#E8AE8D;}
	.st95{fill:#D27C64;}
	.st96{fill:#E7AE8D;}
	.st97{fill:#D47D65;}
	.st98{fill:#604A38;}
	.st99{fill:#B3886E;}
	.st100{fill:#DC8E72;}
	.st101{fill:#C7715C;}
	.st102{fill:#64452A;}
	.st103{fill:#846854;}
	.st104{fill:#DC8D72;}
	.st105{fill:#82614B;}
	.st106{fill:#C18269;}
	.st107{fill:#6D4B30;}
	.st108{fill:#6D5642;}
	.st109{fill:#BE7F67;}
	.st110{fill:#DD8E73;}
	.st111{fill:#EBB190;}
	.st112{fill:#50351D;}
	.st113{fill:#6A492E;}
	.st114{fill:#DF9276;}
	.st115{fill:#61442C;}
	.st116{fill:#D78269;}
	.st117{fill:#D7846B;}
	.st118{fill:#866042;}
	.st119{fill:#894337;}
	.st120{fill:#DA896F;}
	.st121{fill:#783026;}
	.st122{fill:#D57F67;}
	.st123{fill:#D8A183;}
	.st124{fill:#442A11;}
	.st125{fill:#4E3C2B;}
	.st126{fill:#4F361E;}
	.st127{fill:#90735E;}
	.st128{fill:#352616;}
	.st129{fill:#9B7B66;}
	.st130{fill:#4B3117;}
	.st131{fill:#957761;}
	.st132{fill:#7B614C;}
	.st133{fill:#7D624E;}
	.st134{fill:#7A604C;}
	.st135{fill:#836753;}
	.st136{fill:#93745F;}
	.st137{fill:#6D5541;}
	.st138{fill:#B48E77;}
	.st139{fill:#B59078;}
	.st140{fill:#997357;}
	.st141{fill:#856955;}
	.st142{fill:#9D7455;}
	.st143{fill:#100910;}
	.st144{fill:#070203;}
	.st145{fill:#130C14;}
	.st146{fill:#273252;}
	.st147{fill:#110A11;}
	.st148{fill:#28090D;}
	.st149{fill:#1D0D14;}
	.st150{fill:#1F0507;}
	.st151{fill:#0F111F;}
	.st152{fill:#0A060A;}
	.st153{fill:#120B12;}
	.st154{fill:#230D14;}
	.st155{fill:#0D0407;}
	.st156{fill:#2A3556;}
	.st157{fill:#030101;}
	.st158{fill:#DC956B;}
	.st159{fill:#422910;}
	.st160{fill:#5C4028;}
	.st161{fill:#644730;}
	.st162{fill:#6F503A;}
	.st163{fill:#72523C;}
	.st164{fill:#52361F;}
	.st165{fill:#4A2F17;}
	.st166{fill:#3E250D;}
	.st167{fill:#50341B;}
	.st168{fill:#3F270E;}
	.st169{fill:#64472F;}
	.st170{fill:#543921;}
	.st171{fill:#4C321A;}
	.st172{fill:#61442D;}
	.st173{fill:#553B22;}
	.st174{fill:#030202;}
	.st175{fill:#F6BC98;}
	.st176{fill:#83624C;}
	.st177{fill:#694C36;}
	.st178{fill:#452C13;}
	.st179{fill:#4A3018;}
	.st180{fill:#73543D;}
	.st181{fill:#422A10;}
	.st182{fill:#694B34;}
	.st183{fill:#765D49;}
	.st184{fill:#A2806A;}
	.st185{fill:#9B7B65;}
	.st186{fill:#7E634F;}
	.st187{fill:#732B23;}
	.st188{fill:#8E483A;}
	.st189{fill:#70513B;}
	.st190{fill:#5F422B;}
	.st191{fill:#72533C;}
	.st192{fill:#5C4029;}
	.st193{fill:#4F341C;}
	.st194{fill:#6E5039;}
	.st195{fill:#493018;}
	.st196{fill:#684B33;}
	.st197{fill:#5C4129;}
	.st198{fill:#765640;}
	.st199{fill:#573C24;}
	.st200{fill:#8E6B56;}
	.st201{fill:#6A4C35;}
	.st202{fill:#4A3017;}
	.st203{fill:#85634B;}
	.st204{fill:#462D15;}
	.st205{fill:#6E4F38;}
	.st206{fill:#926F5A;}
	.st207{fill:#472D15;}
	.st208{fill:#553922;}
	.st209{fill:#4C5C7D;}
	.st210{fill:#26080A;}
	.st211{fill:#291014;}
	.st212{fill:#181318;}
	.st213{fill:#070304;}
	.st214{fill:#231319;}
	.st215{fill:#251115;}
	.st216{fill:#2B1115;}
	.st217{fill:#14141A;}
	.st218{fill:#536384;}
	.st219{fill:#506081;}
	.st220{fill:#211115;}
	.st221{fill:#100B0E;}
	.st222{fill:#271216;}
	.st223{fill:#241015;}
	.st224{fill:#241A21;}
	.st225{fill:#28080A;}
	.st226{fill:#21171E;}
	.st227{fill:#1F1015;}
	.st228{fill:#1F191F;}
	.st229{fill:#040202;}
	.st230{fill:#130F14;}
	.st231{fill:#F8F7F7;}
	.st232{fill:#5B351E;}
	.st233{fill:#F4F3F3;}
	.st234{fill:#5D3821;}
	.st235{fill:#E2E0DF;}
	.st236{fill:#F5B996;}
	.st237{fill:#6C4E3C;}
	.st238{fill:#F5F5F5;}
	.st239{fill:#5A3620;}
	.st240{fill:#5E3821;}
	.st241{fill:#F5F4F4;}
	.st242{fill:#E6E4E2;}
	.st243{fill:#6A4B38;}
	.st244{fill:#EDA989;}
	.st245{fill:#6D4E36;}
	.st246{fill:#6C4D36;}
	.st247{fill:#D59068;}
	.st248{fill:#492F17;}
	.st249{fill:#916E59;}
	.st250{fill:#462C13;}
	.st251{fill:#422911;}
	.st252{fill:#7F5D47;}
	.st253{fill:#C68965;}
	.st254{fill:#422A11;}
	.st255{fill:#84624C;}
	.st256{fill:#412910;}
	.st257{fill:#896147;}
	.st258{fill:#52371F;}
	.st259{fill:#8B6853;}
	.st260{fill:#563A23;}
	.st261{fill:#6C4C31;}
	.st262{fill:#8F6F56;}
	.st263{fill:#FBB731;}
	.st264{fill:#F7F7F7;}
	.st265{fill:#F6F6F6;}
	.st266{fill:#9E9E9E;}
	.st267{fill:#969696;}
	.st268{fill:#EAEAEA;}
	.st269{fill:#020101;}
	.st270{fill:#040302;}
	.st271{fill:#FEFBF3;}
	.st272{fill:#BE7C13;}
	.st273{fill:#CC8916;}
	.st274{fill:#BC7B11;}
	.st275{fill:#DB981D;}
	.st276{fill:#C68517;}
	.st277{fill:#D2972F;}
	.st278{fill:#D9961D;}
	.st279{fill:#BD7B0D;}
	.st280{fill:#BF7F17;}
	.st281{fill:#C07E14;}
	.st282{fill:#BF7F19;}
	.st283{fill:#BA780B;}
	.st284{fill:#A2A2A2;}
	.st285{fill:#A3A3A3;}
	.st286{fill:#A4A4A4;}
	.st287{fill:#D19632;}
	.st288{fill:#D4A048;}
	.st289{fill:#213C72;stroke:#000000;stroke-width:2;stroke-miterlimit:10;}
	.st290{fill:#FDFDFD;stroke:#000000;stroke-width:2;stroke-miterlimit:10;}
	.st291{fill:#283554;stroke:#000000;stroke-width:2;stroke-miterlimit:10;}
	.st292{fill:#777777;stroke:#000000;stroke-width:2;stroke-miterlimit:10;}
	.st293{fill:#D33645;stroke:#000000;stroke-width:2;stroke-miterlimit:10;}
</style>
<path d="M385.1,787.6c-0.9,0-1.6-0.2-2.3-0.7c-8.8-13.9-6.8-29.4-6.7-44.6c0.1-17.6,0.5-17.6-16.5-14.9c-3.1,0.5-6.2,1.2-9.4,1.4
	c-12.2,0.2-23.9,4.3-36,5.6c-11.8-0.3-21.2,7.8-32.5,9.3c-4.2-1.5-10.2-3.1-10.6-7c-0.5-5.3,6.1-6.9,10.1-9.5
	c18.1-11.7,39.5-11,59.5-15.2c13.6-2.8,27.7-3.5,41.3-6.1c12.9-2.5,20.5-13.8,31.6-20.3c-11.6-10.8-23-20.9-33.7-31.7
	c-25.7-25.9-41.9-57-48.9-92.8c-1.5-7.9-3-12.9-13.1-12.7c-7.6,0.2-14.6-5-19.1-11.4c-26.2-37-44.4-76.9-43.9-123.5
	c0.1-11.4,2.4-22.4,6.1-33c5.9-16.8,20.3-25.4,37.2-20.4c9.4,2.8,8.9-0.8,8.2-7c-0.9-7.1-2.1-14.2-3.2-21.3
	c-18.9,5.1-29.3,1.3-39.1-14.1c-9.1-14.3-7.5-28.3,4.6-41.9c2.7-3,5.4-6,8.1-9c3.4-4.5,7.9-7.6,12.9-10.1c3.9-1.9,7.8-3.8,11.6-5.9
	c5.8-2.3,11.1-7.3,18.2-4c0,11.1-12.3,13.3-15.9,21.8c-4.9,6.6-12.7,9.6-18.5,15c-7.3,6.7-12.7,14-5.7,24.2c5,6.9,10.9,8.5,18.8,4.2
	c40.5-21.9,85.3-28.3,130-35.3c50.2-7.8,100.9-7.2,151.3-5c48.2,2.1,96,9.8,142.4,24.2c12.5,3.9,24.9,8.2,36.1,15.2
	c8.9,5.6,16.1,4.9,21.3-4.9c5-7.4,2.2-13.3-3-19.4c-6.3-7.2-15.1-11.4-21.9-18.1c-5.3-5.5-11.8-9.6-17.3-14.9
	c-2.7-2.5-7.3-4.5-4.4-9.7c11.3-1.6,20.6,3.8,29.9,8.9c5.8,3.9,12.5,6.8,16.1,13.4c23.3,17.4,27.5,35.7,12.7,54.7
	c-12.5,16.1-20.3,16.9-45.5,3.8c-2,12.5-4,24.7-6.3,38.6c13.1-5.2,25.1-8.1,36.2,0c14.6,10.7,17.1,27.6,17.9,43.4
	c1.6,33.7-5.8,66-22.3,95.8c-5.4,9.8-11.8,19.1-17.6,28.7c-5.9,9.9-14.2,16.6-25.8,16.8c-6.1,0.1-8,3-8.7,7.7
	c-8.9,53.2-38.8,92.8-80.1,125.2c-1.4,1.1-2.4,2.6-3.6,4c0.9,0.6,1.8,0.9,2.3,1.5c25.9,29.4,62.8,24.4,96,29.5
	c16.6,2.6,31.1,7.3,44.3,17.7c-3.1,5.5-7.5,7.6-13.2,7.4c-19.8-4.7-39.7-8.7-59.8-11.2c-31.3-5.9-31.1-5.8-31.6,24.5
	c-0.2,11.3,2,23.6-8.9,32c-0.9,0.2-1.8,0.4-2.8,0.5c-5.8-0.4-3.8-5-3.8-7.9c-0.3-10.8,0.6-21.5,0.9-32.3c-0.6-7.8-0.5-15.8-4.9-22.8
	c-3.4-5.3-8.3-9.1-12.4-14.5c-0.2-1.1-2.8,1.4-1.2,0.6c0.7-0.3,1-0.1,1.1,0.6c1.8,7.6-1.4,14.7-2,22.1c-3.2,14.9-8.9,28.8-17.7,41.3
	c-7.6,10.9-14.8,22.2-27.4,28.4c-3.6-0.1-7.2-0.2-10.8-0.3c0.3-8.4,9-10,12.8-15.7c4.7-6.9,10.3-13.2,14.6-20.4
	c7.1-11.1,11.6-23.2,13.9-36c0.6-3.6,2.3-10.1-5.8-5.9c-7,33.7-30.6,49.2-61.8,56.5c-26.1,6.1-51.9,5.8-77.2-3.3
	c-23.7-8.5-42-22.6-48.6-48.4c-0.5-2.1-0.8-4.5-3.7-5.2c-4.1,1.7-2.4,5.1-2.3,8c1.6,13.1,7.7,24.5,13.6,36c2.3,4.4,5.1,8.6,8.2,12.5
	c4,4.7,8.6,8.8,13,13c2.7,2.6,6.8,4.9,3.5,9.8c-2.9-0.2-5.8-0.3-8.7-0.5c-11.5-6.2-19.4-16.1-26.8-26.5
	c-9.3-13.9-14.2-29.6-18.1-45.6c-1.6-5.9-0.7-12.1-2.3-19.1c-6.6,2.6-9.7,7.6-12.4,12.9c-3.2,7.7-4.6,15.8-3.8,24.1
	c0.3,10.1,0.2,20.3,0.6,30.4C392.5,783.8,393.4,790.1,385.1,787.6z"/>
<path class="st0" d="M290.2,258.8c-4,3.4-7.7,7.4-13.3,8.1c-1.4-37.1,0.3-74.2,8.8-110.4c14-59.5,52.3-99.6,108.2-121
	c96.1-36.8,192.6-36.8,285.9,9.2c57.4,28.3,88.4,76.6,93.2,140.9c2,27,3.9,54,5.8,81c-5.6-3.6-11.1-7.3-16.7-10.9
	c-2.9-15.8-1.9-31.9-3.6-47.9c-2.4-23.7-4-47.5-13-70c-4.2-10.5-9.4-20.4-16.1-29.5c-3.9-3.4-4.4-13.2-13.4-7.3
	c-2.4,0.9-5,2.4-6.8-1c3.7-10.6-0.9-17-9.5-23.4C660.7,47.3,615.9,34,568.1,29.3c-12.9-1.3-25.8-4.2-39-2.8c-2.1,0-4.2,0-6.3,0
	c-52.2,2-103,9.5-148.8,37.2c-12.8,7.7-24.6,16.6-34.7,27.6c-3.5,3.3-7,6.6-10.1,10.4c-19.7,26.1-29.3,56-32.7,88.1
	c-0.4,4-0.5,8-1.5,12c-2.2,13.4-0.8,27-0.9,40.4C294.1,248.1,294.4,254,290.2,258.8z"/>
<path class="st1" d="M422.8,733.4c-2.3-6.1-6.8-12.9,4.1-15.4c3.2-0.7,7-2.9,7.5,3.6c2.9,35.8,28.6,49.1,58.3,56.5
	c28.6,7.1,57.4,5.2,84.7-7.2c21.9-9.9,36.8-25.8,38.1-51.3c9.2-2.1,11.3,3.7,10.4,10.6c-1.2,9.4-3.3,18.9-9.7,26.3
	c-3.3,3.8-3.5,7.7-3.3,12.1c-6.9,13.9-18.2,23.9-29.4,34.1c-9.3,6.6-21.2,0.6-30.7,6.2c-19.7-2-39.3-2-59,0
	c-3.8-0.9-7.6-1.8-11.3-2.6c-5.9-3.4-12.8,0.7-18.7-2.5c0,0-0.2-0.2-0.2-0.2c-3.1-10-14.6-12.9-18.7-22.1c3.2-5.6,7.1-1.7,10.4-0.4
	c5.7,2.2,10.9,5.6,17.2,5.7c7.9,0.9,15.4,4.3,22.1,4c3.2,0.3,1.7-2.3,2-0.5c-34-2.9-59.2-18.2-72-50.9
	C423.9,737.6,425,735,422.8,733.4z"/>
<path class="st2" d="M349.7,725.4c10.1-1.4,22.8-7.1,29.6-3.1c7.3,4.3-0.4,17.7-0.2,27.3c0.3,12.6,3.5,24.7,3.6,37.2
	c-11.4-2.3-22.3-6-32.8-10.9C343,759.1,343.4,742.3,349.7,725.4z"/>
<path class="st3" d="M705.3,727.6c20.5,2,41.4,2.6,59.6,14.1c-19.8,14.6-41.7,25.1-65,32.7c-8.2-13.7-4.7-28.3-2.7-42.7
	C697.7,728,700.8,725.6,705.3,727.6z"/>
<path class="st2" d="M705.3,727.6c-6.2,1.2-5.5,6.1-5.5,10.5c0,12.1,0.1,24.2,0.1,36.3c-11.1,6.2-23.4,9.1-35.4,12.6
	c7.8-18.1,5.9-37.2,4.5-56c-0.5-7.2-0.2-9.4,7.1-7C685.6,727.2,696,722.5,705.3,727.6z"/>
<path class="st3" d="M349.7,725.4c0.1,16.9,0.2,33.7,0.3,50.6c-16.9-5.8-33.2-13-48.8-21.7c-1.3-2.8-0.4-5.6,0.3-8.3
	c1.1-3.2,1.9-6.5,3.5-9.6c1.9-2.2,4.1-4,6.8-5.2C324.5,729.6,336.7,725,349.7,725.4z"/>
<path class="st4" d="M431.4,776.6c7.9,8.9,15.8,17.8,23.6,26.7c-17.2-1.9-34.2-4.7-50.7-10.1c0.3-1.3,0.9-2.5,1.6-3.6
	C412.7,782.1,417.9,771.2,431.4,776.6z"/>
<path class="st5" d="M594.4,803.2c8.2-9.6,16.4-19.2,24.6-28.7c13.2-2,18.9,6.7,23.8,16.6c0,0.6,0,1.3-0.1,1.9
	C627.1,798.9,610.7,800.6,594.4,803.2z"/>
<path class="st6" d="M406.6,792.5c-0.8,0.1-1.6,0.3-2.3,0.7c-6.7-0.8-13.3-2-19.2-5.6c2.7-0.6,5.1-1.4,4.2-5.1
	c-2.9-11.7-1.3-23.7-1.6-35.5c3.3-5,8.2-5.9,10.3-0.4C403.6,761.2,412.9,775.5,406.6,792.5z"/>
<path class="st7" d="M661.9,746.9c-0.1,13.6-0.1,27.1-0.2,40.7c-6,3.2-12.2,5.4-19.1,5.4c0,0,0.1-1,0.1-1c-6.2-17,4.2-30.9,8.9-45.6
	C653.5,740.7,658.6,742.3,661.9,746.9z"/>
<path class="st8" d="M311.8,731.1c-1.7,1.6-3.4,3.2-5.1,4.8c-2.3,3.4-4.7,6.8-2.8,11.2c-0.9,2.3-1.7,4.7-2.6,7
	c-6.5-3.5-12.9-7.1-19.4-10.6C290.3,735.9,300.6,732.4,311.8,731.1z"/>
<path class="st9" d="M494.6,808c19.7-4.2,39.3-4.2,59,0C534,808,514.3,808,494.6,808z"/>
<path class="st10" d="M464.6,802.8c6.2,0.6,13-2.5,18.7,2.5C477.1,804.2,470.2,808.3,464.6,802.8z"/>
<path class="st11" d="M325.8,437.7c0.6-32.5-2.6-64.8-6.2-97.1c-2.1-5.7-1.3-10,5.9-9.9c40.7,0.5,79.2-13.7,119.3-17.1
	c2.9-0.3,5.8,0.2,8.6,0.8c5.3,0.6,10.4,2,15.6,3.2c5.1,1.2,10,3,14.8,5c3.2-2.7-1.9-2.9-1.5-4.8c-0.6-2.5,0.9-3.8,2.6-5.2
	c7.8-4.7,16.4-3.9,24.8-3.6c17.3,0.6,34.8-2.2,51.9,1.9c5.9,0.1-0.9,14.7,10.2,9c1.5-0.8,3.1-1.6,4.6-2.4c1-0.5,2-0.9,3.1-1.2
	c1-0.3,2.1-0.5,3.1-0.7c1.5-0.3,3-0.7,4.5-1.1c0.9-0.4,1.9-0.7,2.9-0.9c1-0.3,2-0.5,3-0.8c1-0.4,2-0.7,3-1.1
	c1.1-0.4,2.1-0.7,3.3-0.8c1.8-0.1,3.6,0.2,5.3,0.8c1.8,0.7,3.6,1.6,5.4,2.4c21,2.7,41.8,5.9,62.5,10.7c13,3,26.8,2.8,40.2,3.4
	c5.8,0.2,11.9-0.8,16.6,3.8c-4.2,33.3-6.4,66.7-5.7,100.3c-2.2,27.5-5.8,54.8-17.6,80.2c-1.1,3.1-2.5,6-4,8.9
	c-2.3,3.5-3.3,7.5-4.4,11.5c-2.9,3.5-5.4,7.2-7.2,11.5c-3.7,6.7-8,13-12.8,19c-1.4,1.9-2.7,4-4.1,5.9c-5.2,6.3-11.3,11.8-16.9,17.7
	c-14.7,10.7-16.8,9.9-20.8-6.9c-2.4-9.9-6.4-18.7-16.2-23.5c-14-7-28.5-5.4-43.1-2.2c-7.8,1.4-15.9,1-23.7,3.2
	c-10.5,0.6-21,1.2-31.6,1.8c-9.4-2.3-19.1-0.3-28.5-2.1c-6.5-2.1-13.2-2.2-19.9-1.5c-2,0-3.8-0.5-5.6-1.4c-4.5-2.7-9.5-1.9-14.3-2
	c-1.8,0.1-3.7,0.1-5.5,0c-6.1-0.4-12.1,0.4-17.5,3.6c-4.5,2-8.1,5.1-11.2,8.8c-3.5,3.7-5.3,8.2-6.5,13.1
	c-2.6,10.4-8.3,11.9-16.5,5.6c-4-3-8.3-5.5-12.2-8.7c-8.2-7.6-16-15.7-22-25.2c-4.1-6.2-7.8-12.7-11.2-19.3
	c-2.9-6.3-6.4-12.4-8.9-18.9c-1.1-3.2-2.3-6.3-3.4-9.4C330.7,481.2,327.4,459.6,325.8,437.7z"/>
<path class="st12" d="M783.8,304.9c-6.2,16.9-11.5,18.9-26,10.8c-34-19.1-71.8-25.6-109.5-32.3c-52.7-9.4-106-10-159.2-7.9
	c-56.4,2.3-112.1,9.9-165.6,29.3c-7.6,2.7-15,6.1-22,10.1c-15.3,8.8-16.9,8.6-27-7.6c0.3-14.9,11.1-22,21.9-28.5
	c16.7-10.1,35-16.8,53.9-21.5c40.8-10.1,82.3-15.5,124.2-19.1c77.3-6.7,153.2,1.2,228.5,17.6c23.9,5.2,47,13,66.8,28.4
	C776.7,289.7,782.7,295.6,783.8,304.9z"/>
<path class="st11" d="M523.2,771.9c-22.9-0.3-44.9-3.8-62.9-19.7c-9.1-8-19.1-19.5-13.7-29.8c5.3-10.3,19.9-5.7,30.7-2.6
	c31.9,9.1,63.8,9,95.6-0.1c10.5-3,24.3-6.9,29.5,2.7c5.4,9.9-3.8,21.1-12.5,29C570.9,768.5,547.5,771.6,523.2,771.9z"/>
<path class="st13" d="M729.4,332c-17.8,2.2-36.3,0.7-53.2-1.9c-16.2-2.4-33.1-6.1-49.4-10.5c-7.3-2-15.5,1.9-21.9-4.1
	c4.9-7.1,12.6-2.5,18.7-4.6c1.2-0.3,2.4-0.4,3.6-0.4c5.9,1.2,12.1,0.5,18,2.1c2.8,4,6.4,3.9,10.3,1.8c-3.3,0.8-6.6,1.8-9.5-0.8
	c-2.3,0.4,2-6.3-3.3-3.1c-3.6,2.2-7.3,0.9-10.7-1.3c-2.5-2-4.1-5.6-8.3-4.4c-2.8,0.6-5.2,2-7.5,3.4c-3.8,1.1-7.9-0.1-11.7,1.1
	c-1.2,0.1-2.3,0.1-3.5-0.2c-3.9-2.3-7.5-2-10.7,1.4c-0.5,0.3-1.1,0.5-1.6,0.8c-1.2,0.2-2.3,0.1-3.5-0.2c-4.3-2.1-7.4-0.4-10,3.2
	c-0.4,0.5-0.8,0.9-1.2,1.4c-0.5,0.4-0.9,0.8-1.4,1.2c-1.1,0.6-2.3,0.9-3.6,1c-2,0-3.7-0.6-4.9-2.2c-7.3-5.3-15.7-2.6-23.4-2.4
	c-19.1,0.4-38.4-2.9-57.3,2.5c-5.1,3.8-8.2-0.1-11.7-2.9c-2.2-2.7-4.8-4.8-8.6-4.6c-6.4,0.8-12.9,0-19.2,1.6
	c-3.2,0.6-6.3,0.7-9.3-0.7c-3.5-2.2-5.3-5.6-7-9.1c-0.6-2-0.7-3.8,1-5.4c58.9-8.2,118-8.7,177-3.1c39,3.7,77.6,10.4,115.2,22.2
	C731,317,735.3,321.7,729.4,332z"/>
<path class="st14" d="M732.3,245.4c6.9,8.6,17.8,12.8,24.1,21.9c-4.4,2.8-8.8,1-13-0.5c-49.3-17.6-100.6-24.5-152.4-28.9
	c-75.2-6.3-149.6-1.1-223.4,14c-17.3,3.5-34.2,8.4-50.8,14.5c-5,1.8-10.1,4.5-15.5,1.3c3.6-9.1,12.4-13.3,18.7-20
	c-0.2-5.1,4.1-5.1,7.2-6.5c2.1-0.9,4.2-1.7,6.3-2.4c45.7-13.1,92.6-19,139.9-22.2c21.6-1.5,43.1-2.9,64.8-2.6
	c54.7,0.7,108.8,7.4,162.3,18.5c17.4,3.6,17.3,3.9,20.3-13.9c0.3-1.8,1-3.4,2-5c8-2.5,6.6,4.2,7.3,8c1.1,6.4-0.4,13,1.4,19.4
	C731.9,242.5,732.2,244,732.3,245.4z"/>
<path class="st15" d="M327.8,244.9c-2.8,0.4-5.8,0.1-7.8,2.9c-7.1-0.6-12.3,5.1-19,5.6c-4.8-1.9-6.2-6.1-6.8-10.6
	c-2-14.5-4.2-28.9-1.5-43.6c1.8-37,10.9-71.5,35.4-100.5c5.9-0.6,11.4-0.1,15.1,5.4c3.1,6.4,1.3,13.6,2.9,20.3
	c0.2,1.3,0.2,2.7,0.1,4c-0.7,3.9-1.4,7.8-2.3,11.7c-2.4,8.8-4.7,17.6-6.5,26.5c-0.3,5-1.6,10-2.4,14.9c0.2,3.1,1,6.3,0.1,9.4
	c-0.6,1.9-1.4,3.6-2.2,5.4c-1.8,4.6-0.9,9.4-1,14.2C330.7,222,335.2,234.2,327.8,244.9z"/>
<path class="st15" d="M732.3,245.4c-0.8-0.3-1.7-0.4-2.6-0.5c-3.3-7.1-1-14.6-1.5-21.9c-0.4-4.7,0.7-9.7-3.1-13.6
	c-2.3-4.7-1.5-10.1-3.3-14.9c-0.4-1.4-0.7-2.7-0.9-4.1c-0.6-4.8-0.3-9.6-0.7-14.4c-1.1-7-1.7-14.2-6.1-20.3
	c-2.1-4.9-3.2-10.1-4.1-15.4c-0.5-4.5-0.2-9-1.5-13.4c-0.4-1.8-0.4-3.7-0.1-5.6c1.3-4.6,1.8-9.2,0.4-13.8c-0.2-1.2-0.2-2.4,0-3.6
	c0.4-1.2,1.2-2.1,2.3-2.6c1.6-0.8,3.2-1.7,4.7-2.5c5.8-1.2,9.5,3,13.9,5.4c18.3,20,25.1,44.9,29.1,70.7c2.9,18.5,3.8,37.2,5.7,55.9
	c0.9,8.6-1.6,16.8-2.7,25.2C752.4,251.6,742.8,247.4,732.3,245.4z"/>
<path class="st16" d="M301.3,267.7c151.7-49.6,303.4-49.7,455.2-0.4c7.5,6,16.8,10,22.9,17.7c4.6,5.8,10.3,11.6,4.4,19.9
	c-20-29.1-51.3-38.5-83.1-45.7c-65.6-14.9-132.3-22.5-199.6-19c-59.7,3.1-119.3,9.1-176.3,29.4c-14,5-27.7,10.9-38.8,21.5
	c-4.9,4.8-8.8,10-11.6,16.2c-5.3-10.2-0.6-18.1,6.7-24.6C287.5,277.2,294.6,272.7,301.3,267.7z"/>
<path class="st17" d="M518.1,714.4c-1.8-0.1-3.6-0.2-5.3-0.3c-1.9-1.4-3.8-6.5-5.9-0.1c-0.8,0.1-1.6,0.1-2.3,0.1
	c-4.4-2.1-4.8-6.3-5.4-10.3c-0.1-2-0.1-4-0.1-5.9c-0.3-5.8,0.3-11.6,1.3-15.8c1.1,1.8-2.1,5.2-1.3,8.6c0.1,6-0.5,11.9,0.6,17.8
	c0.2,2.4-0.7,3.8-3.3,3.6c-4.5-1.1-9-2.2-13.6-3.4c-0.7-0.5-1.4-1.1-2.1-1.7c-1.9-1.6-1.9-3.9-2-6.1c-0.1,1.8,0.3,3.8-1.3,5.3
	c-2.8-9.2-11.2-2.8-16.2-5.7c-2.1-3.3-5-6-5.3-10.2c-0.2-3.4-0.2-6.8,0-10.1c0-0.5,0.4-1.1,0.1-1.6c-1.3,5.5,1.8,11.7-3.2,16.3
	c-1.8-0.8-3.5-1.6-5.3-2.4c-1.8-3.7-2.4-7.7-2.4-11.8c1.1-4.5,1.7-9.1,1.2-12.3c0.8,1.2-0.4,4.1-0.2,6.9c-2.3,4.7-0.1,9.7-1.2,14.5
	c-3.6-0.4-6.4-2.3-8.5-5.2c-2.1-2.8-2.7-5.8-2.1-9.2c1.6-4.8,1.1-9.5-0.9-14c-1.2-4.2-3.7-8-3.3-12.6c1.6-4.9,2.7-10,6.6-13.8
	c10.3,3.5,14.5,14.9,24.8,18.9c7.3,2.8,15.7,3.3,21.7,9.3c0.7,3.2-1.2,5.9-2,8.8c-0.3,1.6-0.8,3.2-1.4,4.8c-0.4,1.1-1.5,2.1-0.5,3.4
	c0.2-1.4,1.1-2,2.4-1.9c3.8,2,4.1,5.3,3.4,8.8c1.2-3.8-0.2-7.8,1.1-11.4c1.2-3.6,1.5-7.6,3.9-10.8c9-3.6,14.6-11.3,21.2-17.8
	c10.1-2,20.3-4.3,29.1,3.8c3.3,5,4.5,11.3,9.3,15.5c2.3,2.6,5.3,4.5,7.4,7.4c3.5,12.7,10.6,25.5-1.1,37.8c-0.9,0.3-1.8,0.5-2.7,0.8
	c-5.7-0.5-5.2-5-5.3-8.7c-0.2-5.2-0.3-10.4-2.2-15.3c-0.3-0.8-0.4-1.6-0.5-2.5c0-0.2-0.1,0.4,0.1,1.6c0.5,2.1,1.2,4.2,1.8,6.3
	c0.3,6.9,3,14.1-2.4,20.3c-5.3,0.2-10.5,0.5-15.8,0.7c-12.7-1.5-5.9-12.5-9.1-18.8C520.4,702.3,522.5,708.7,518.1,714.4z"/>
<path class="st17" d="M621.5,554.1c11.6,4.9,16.9,15.3,17.6,26.2c1,13.8,5.5,12.4,13.8,6c1-0.8,2.4-1,3.6-1.5
	c2.6,0.2,4.3,1.7,5.7,3.7c0.5,1,0.9,2.1,1.1,3.2c0.3,3.6,3,5.9,4.9,8.7c0.7,1.8,0.8,3.5,0.4,5.4c-0.8,2.5-2,4.7-4.1,6.2
	c-1.2,0.4-2.5,0.3-3.7-0.1c-4.1-2.5-5.3-8.1-10.5-9.7c-3.7,2.3-0.1,5.7-1.2,8.3c-2.1,3.8-4.9,7.6-1.8,12.3c0.9,3,1,5.9-0.2,8.8
	c-0.6,1.1-1.5,1.8-2.6,2.1c-8.7,5.7-5.9,14.2-5.4,22.1c0.2,5.7-5.1,8.6-6.8,13.4c-2,2.4-3.9,4.9-5.9,7.3c-11.8,3.2-9.1-5.3-9.4-11.5
	c-0.5,5.7,0.1,11.3,1.7,16.8c-10.7,8.8-23.1,14.7-35.2,21.1c-2.8-3-2.4-6.2-1.7-7.5c0.3,2.7-1,7.1-4.5,10.5
	c-1.7,0.3-3.4,0.6-5.2,0.9c-4.3-4.1-3.4-9.5-3.4-14.6c0.1-2.1,0.6-4,1.4-5.9c4.8-4.2,5.4-9.1,2-14.5c-1.5-3.3-5.4-6.2-1.9-10.5
	c2.9-2.2,6.4-3.2,9.7-4.3c25.5-9,34.7-21.8,34.9-48.8c0-5.8,0-11.6-0.7-17.4c-0.2-7.4,6.7-10.3,9.7-15.7c2.4-3.5,3.6-7.1,0.6-11
	c-2-3-5.8-4.4-6.8-8.2C618.2,553.9,619.2,552.7,621.5,554.1z"/>
<path class="st18" d="M321.9,511.5c0.4,3.6,1,7.1,1.3,10.7c0.4,4.4,5.9,10.3-0.3,12.8c-5.7,2.3-11.5-2.3-14.6-7.5
	c-14.1-23.5-30.4-45.8-35.3-73.9c-3.6-20.6-7.3-40.9-1.7-61.6c2.9-10.9,6.6-21.2,21.3-19.5c12,1.5,18,8.7,19,23.8
	c0.4,5.4-0.1,10.8-0.2,16.2c-9.6-1.5-9.3-12.1-15.6-16.7c-2.8-2-6.3-7.8-7.3,1.2c-13.2,34.3-1,64.4,15.7,93.7
	c1.8,3.1,4.1,5.9,6.2,8.9C313.3,504.4,318,507.6,321.9,511.5z"/>
<path class="st19" d="M737.8,410.5c-0.1-5.9-0.1-11.7-0.3-17.6c-0.3-12.3,7.6-17.7,18-20.1c10.6-2.4,16.8,3.1,20.5,12.9
	c7.6,20.3,4.9,40.8,1.8,61.4c-4.6,30.4-21,55.2-36.8,80.4c-1.6,2.5-4.5,4.3-7.1,6c-2.6,1.8-6.1,3.3-8.7,1.2c-2.2-1.7-0.8-5-0.4-7.7
	c0.9-5.3,1.6-10.6,2.5-16c4.2-3.7,8.4-7.3,11.6-12c16.8-22.1,25.4-47.3,27.8-74.8c0.9-9.8-2.3-18.6-5.6-27.4c-0.8-1.8,0.8-6.3-3.9-4
	c-4.5,2.2-7,6.4-9.7,10.5C745.1,406.9,743.7,411.9,737.8,410.5z"/>
<path class="st20" d="M762.2,394.7c12.4,15.8,8.4,33.5,4.9,50.5c-4.2,20.7-12,40.4-26.5,56.5c-3.2,2.6-5.8,6.9-11,3.6
	c3.4-25.1,8.1-50.1,8.3-75.6c3-4.5-1.6-13.5,8.3-13.9c7,9.8,8.5,21,9.2,32.4c-0.6-12.1-2.5-23.9-10-34.3
	C746.7,403.8,750,395.3,762.2,394.7z"/>
<path class="st21" d="M428.5,294.6c0,1.6,0,3.2,0,4.8c-0.4,0.4-0.7,0.9-1.1,1.4c-3.4,2.1-6.9,4-9.9,6.7c-1.1,0.8-3,1.2-3.3,2.1
	c-0.6,2.1,1.4,1,2.2,1c2.6-0.1,5.3-0.3,7.9,0.2c2.3,0.5,4.6,1.2,7,1.1c5.3,0.4,10.7-1.7,16,0.4c0.6,0.7,0.9,1.4,0.8,2.1
	c-0.1,0.8-0.2,1.2-0.4,1.2c-18.8,3.6-37.8,6.4-56.3,11.1c-21.8,5.5-43.9,7.2-66.1,7.3c-6.4,0-4.4,4-5.6,6.7
	c-5.3-17.8-5-18.7,11.6-24.5C362.8,305.1,395.5,299,428.5,294.6z"/>
<path class="st20" d="M307.7,502.8c-17.3-25-28.7-52-28.4-83c0.1-9.3,2.1-17.6,8-24.9c12.3,0.5,14.3,9.3,15.4,19
	c-6.5,11.8-9.8,24.4-8.5,37.9c-1,3.4,2.4,6.3,2.2,7.4c-0.2-1-2.6-3.7-2.1-7c0.1-11.8-1.1-23.9,8-33.5c9.1-1.3,6.6,7,9.2,11.1
	c0.3,25.5,4.9,50.4,8.4,75.5C314.7,509.3,311.8,503.1,307.7,502.8z"/>
<path class="st17" d="M431.2,649.3c1.8,3.7,3.5,7.4,5.3,11.1c-4.8,4,0.2,8.8-1.1,13.2c-1.6,2.8,2.8,8.5-4.2,8.5
	c-5.2-4.9-12.3-7.5-16.2-13.8c-2.3-3.6-3-7.8-4.8-11.6c-0.9-1.6-1.7-3.2-2.5-4.8c-1.2-2.9-2.1-5.8-3-8.7c-0.8-3.1-0.8-6.2-0.1-9.3
	c0.4-1.8,0.9-3.6,1.2-5.3c0.5-3.5,0.5-7.1,0.4-10.6c0.1-4.7-0.9-9-4.4-12.4c-0.8-0.9-1.5-1.8-2-2.9c-1.3-6.3-3.2-12.5-5.2-18.6
	c0.2-1.2,0.9-2.2,1.9-2.9c6.8,4.2,12,5.4,13.1-5.4c0.6-5.3,2.6-10.5,8-13.3c0.9,0.9,1.4,2,1.5,3.2c-0.3,1.7-0.9,3.3-2,5.3
	c3-3.8,4.1-8.1,6.8-11.4c1.2-1.5,2.8-2.4,4.6-3.1c1.2-0.5,2.4-0.6,3.6-0.3c11.8,7.1-1,11.9-1.7,17.9c-2.6,7.4,6.4,9.2,7.2,14.9
	c0,3.2-0.9,6.1-1.9,9.1c-3.8,7.9-8,15.6-7.9,24.7c0.1,3.7-1.2,7-2.6,10.3c-1,2.8-1.9,5.5,0.3,8.2
	C427.6,643.8,430.7,645.6,431.2,649.3z"/>
<path class="st22" d="M406.6,792.5c0.3-15.5-6.7-29.3-10.6-43.8c-1.6-6.1-5.2-2.8-8.3-1.8c-0.4-8.6,1-16.8,5.5-24.3
	c4.9,11.3,4.9,11.3,19.4,7.7c4.8,16.1,10.3,31.8,18.8,46.3C419.3,775.9,413.7,785.4,406.6,792.5z"/>
<path class="st22" d="M661.9,746.9c-3-0.7-7.1-4.5-8.3,1.7c-3,14.7-11.2,28-10.9,43.5c-7.1-7-12.9-15.7-23.8-17.5
	c7.9-12.9,13.2-27,18.1-41.2c0.6-0.6,1.5-1.5,2.1-1.3c9.9,4.1,14.9-0.2,17.1-9.7C661.8,729.7,661.9,738.3,661.9,746.9z"/>
<path class="st23" d="M422.8,733.4c15.4,35.7,44.6,52.1,84.6,57.6c-14.1,4.6-24.6-0.6-35.3-0.8c-12.4-4.9-24.3-10.8-35-18.8
	C430.5,759.4,423.7,747.5,422.8,733.4z"/>
<path class="st24" d="M403.9,603.2c4.6,3.4,5.7,8.2,5.5,13.6c-2.2,4.4-2.1,8.8-0.1,13.3c-0.8,1-1.7,1.9-2.5,2.9
	c-2.8,4.2-1.4,8.7-0.7,13.2c0.1,1.3,0,2.6-0.4,3.9c-1,1.8-2.3,3.1-4.7,2.4c-3-3-2.5-7.1-3.4-11c-0.6,3,1.4,6.4-1.8,8.6
	c-0.9-0.3-1.7-0.5-2.6-0.8c-4.5-5.7-6.7-12.7-10.2-19c-1.2-4.7-1.8-9.3,1.8-13.4c1.2-0.7,2.4-0.7,3.6-0.1c2,1.5,3.1,4,5.3,5.4
	c0.6,0.4,0.9,2.6,2.1,0.9c0.3-0.4-1.2-2.1-1.5-3.4c-0.4-2.6,0.1-4.8,2.3-6.5C400.9,611.2,400.9,606.1,403.9,603.2z"/>
<path class="st3" d="M412.6,730.2c-0.6,0.7-1,1.7-1.8,2c-5.6,2.1-10.5,10.1-15.9,6.9c-4.4-2.6-1-10.8-1.6-16.5
	c2.3-7.9,8.5-12,15.9-15.7C413.4,714.4,411.4,722.6,412.6,730.2z"/>
<path class="st25" d="M702.4,513.7c10.7-26.2,16-53.8,21.2-81.4c0.2,24.5-0.6,48.9-10,72.1c-0.8,1.9-0.2,4.4-0.3,6.6
	C710.2,513.8,706.8,515.8,702.4,513.7z"/>
<path class="st26" d="M656.3,722.3c0,5.4,0,10.8,0,16.7c-7.8,1-12.6-6-19.3-5.8c-0.5-8.5,1.7-16.6,3.5-25.8
	C647.7,710.8,652.8,715.7,656.3,722.3z"/>
<path class="st27" d="M661.6,592c0-0.8,0-1.6,0-2.4c0.9-7.2,5.1-7.8,10.9-5.4c1.3,4.1,3.3,7.7,7.5,9.6c2.3,1.4,4.5,3,5.5,5.7
	c1.3,4.4,0,8.4-1.8,12.3c-1,2.6-2,5.1-3,7.7c-3.7,1.6-6-2.1-9.2-2.6c-6.7-1.6-4.4-6.8-4.5-11c0-1.9,0-3.7,0-5.6
	C663.7,598.5,662.5,595.3,661.6,592z"/>
<path class="st28" d="M572.3,684.3c0,1.9-0.1,3.7-0.1,5.6c-5.2,5.2,0,13.6-5.7,18.6c-0.9,0.3-1.7,0.6-2.6,0.9
	c-5.1-11.9-1.1-25.9-8.3-37.4c-0.8-1.3-1.2-2.6-1.1-4.2c3.5-6.3,8.6-7.3,14.9-4.4c1.8,2.3,3.6,4.7,5.4,7
	C574.4,675.1,576.2,680.2,572.3,684.3z"/>
<path class="st29" d="M352.6,529.9c4.2,5.9,8.7,11.6,10.8,18.7c1.2,1.2,1.3,2.4,0.1,3.7c-4.5,2.3-8,1.4-10.3-3.2
	c-0.4-1.2-0.4-2.4-0.7-3.6c-0.2-1.1,0.7-2.5-0.8-3.2c0.3,1.2,0.1,2.4-0.2,3.7c-0.6,1.8-1.5,3.3-2.7,4.8c-2,1.8-4.1,3.2-6.6,0.8
	c-1.3-7.1-2.3-14.2-0.6-21.4c-1.7-2.7-1.8-5.4,1.7-6.4C348.4,522.3,350.1,527,352.6,529.9z"/>
<path class="st30" d="M311.4,429.8c-2.6-3.8-5.2-7.6-7.8-11.4c-2-1.1-2.6-3.1-2.9-5.2c-1.7-8.2-6.4-14.1-13.5-18.3
	c-1.1-2-5.3-2.9-3-6.1c1.9-2.7,4.8-1.3,7.2-0.2c10.5,4.8,13.5,15.8,19.9,24C311.4,418.3,311.4,424.1,311.4,429.8z"/>
<path class="st31" d="M745.3,417.1c-2.4,4.2-4.9,8.4-7.3,12.7c0-6.4-0.1-12.8-0.1-19.2c7.6-6.4,9.6-17.9,19.9-21.9
	c2.9-1.1,6.2-2.8,7.9,1.1c0.4,1-2.1,3.3-3.3,5.1c-7.9,3.6-10.8,11.8-16.1,17.9C747.1,414.3,746.9,415.8,745.3,417.1z"/>
<path class="st32" d="M364.1,611.1c-3.9-8.1-7.7-16.1-11.6-24.2c0.1-2.5,0.7-4.9,2.5-6.9c2.8-2.6,5.4-5.7,9.9-5.2
	c1.3,0.5,2.3,1.3,3.1,2.5c0.1,8,12.3,15,1.8,23.8c-2.7-0.4-1.3-3.8-3.3-4.9c1.5,4.7,3.6,9.3,1,14.1
	C366.6,611.7,365.5,611.9,364.1,611.1z"/>
<path class="st33" d="M325.8,437.7c4.4,21.9,8.3,43.9,15.8,65.1c-3.6,1.9-5.7-0.5-7.9-2.7C327.6,479.7,325.6,458.9,325.8,437.7z"/>
<path class="st34" d="M292.7,199.2c-0.6,18.6,2.2,36.7,8.3,54.2c-2.8,3.4-6.6,4.9-10.8,5.4C291.6,239,287.1,218.9,292.7,199.2z"/>
<path class="st35" d="M613,768.8c-4.7-2.8-8.8-5.4-1.9-10.7c8.2-6.4,11.2-15.8,12.4-25.7c0.7-5.9,0.4-12-7.9-12.6
	c11.3-3.4,15.3-1.1,13.1,9C625.7,742.9,622.8,757.3,613,768.8z"/>
<path class="st36" d="M704.1,543.6c4.5,4.4,4.5,9.3,0.9,14.1c-3.5,4.7-1.5,10.3-3.2,15.2c-3.4,1.2-5.5-1.6-8.2-2.8
	c-7.2-6.5-2.1-14.9-3.6-22.3c2.4-4.5,7.8-1.2,10.8-4.2C701.9,543,703,543,704.1,543.6z"/>
<path class="st37" d="M667,605.8c4.4,1.1-1.1,9.2,6,8.3c0.7,1.2,1,2.4,0.9,3.8c-0.6,5.2-1.4,10.4-3.7,15.2
	c-3.2,4.1-5.8,8.8-11.1,10.8c-0.5-0.4-0.9-0.8-1.4-1.2c-2.4-4.3-1.5-9.3-2.7-13.9c-0.1-0.6-0.1-1.2-0.2-1.8c0-1.1,0.4-2.2,0.9-3.2
	c1.4-1.6,3.1-2.7,5.3-2.7c2-2.8-0.2-7.1,3.2-9.4C664.4,609.5,664.7,607.2,667,605.8z"/>
<path class="st38" d="M387.8,616.7c-4.6,3.9-2.1,9.2-2.7,13.8c1.6,3,2.3,6-0.1,8.9c-3.4-2.4-6.2-5.3-7.8-9.3
	c0.9-1.5,0.8-3.3,1.2-4.9c0.8-4,1.3-8-0.3-11.9c-1.2-1.1-2.6-1.8-4-2.4c-1-0.4-2-1-2.8-1.7c-0.6-1-0.8-2.1-0.6-3.3
	c0.4-1.7,1.2-3.3,2.3-4.7c2.3-3.7,0.1-8.6,3.3-12c1-0.7,2.2-1,3.4-1c8.7,3.1,3.4,11.7,6.6,16.9c1.2,2.7,2.1,5.4,2.5,8.4
	C389,614.7,388.6,615.7,387.8,616.7z"/>
<path class="st39" d="M555.9,670.6c9.9,11.5,8.1,25.3,8,38.8c-2.1,3.1-5.1,2.3-8.1,2.2c4-13,2.8-25.6-2.6-37.9
	C552.3,671.1,553.6,670.4,555.9,670.6z"/>
<path class="st40" d="M659.1,644c-3,6.1-8,10.4-13.5,14.1c-1.3-0.9-2.1-2.1-2.7-3.6c-1.5-5.2-1.2-10.5-0.7-15.7
	c0.4-2.3,1.5-4.3,3.2-5.9l-0.1,0.1c5.9-1.1,3.1,4.4,5.3,8.5c-0.1-0.3,1.4-3.5,0-2.3c-1.6-4-2.6-8-0.3-12c2-1.2,4-1.2,5.8,0.3
	l0.2,0.3C659.5,632.8,655.4,639,659.1,644L659.1,644z"/>
<path class="st41" d="M352.6,529.9c-3.6,0.6-7.6-11.3-11,0.3c-9.3-3.8-3.4-12.9-6.5-18.9c3-3,6-2.6,9.2-0.3
	C347.1,517.3,351.5,522.9,352.6,529.9z"/>
<path class="st42" d="M645.2,654.1c0.1,1.3,0.3,2.6,0.4,4c-3.5,4.8-7.8,8.7-13.3,11.1c-2.7-6.2,4.3-9.1,4.9-14.2
	c0-5.8-0.1-11.7,1.8-17.2c0.9-2.8,3-2.8,4.8-0.4C644.9,642.9,642.6,648.7,645.2,654.1z"/>
<path class="st43" d="M437,771.4c12.5,4.7,23.5,12.1,35,18.8c-10.4,1.5-16.9-9.2-27.1-8.5C442.3,778.2,439.7,774.8,437,771.4z"/>
<path class="st44" d="M609.8,704c7.6-9,13.2-8.6,19.2-5.3c2.4,1.3,3.2,4.2,1.6,5.5C624.1,709.4,618.6,701.8,609.8,704z"/>
<path class="st45" d="M518.1,714.4c0-7.1,0-14.1,0-22.1c9.3,5.4,1.2,18.2,10.8,22.4C525.2,718.5,521.6,716,518.1,714.4z"/>
<path class="st46" d="M544.7,714c0-7.9,0.1-15.8,0.1-23.6c-0.9-2.7-2.5-5.7,2.6-5.6c3.9,8.8,0.4,19.1,5.8,27.6
	C550.8,715,547.7,714.5,544.7,714z"/>
<path class="st47" d="M439.7,703c-5.2,0.4-7.3,0.7-9.5,0.8c-3.7,0-7.3,4.3-11,0.6c-0.6-0.6,0.3-3.7,1.3-4.5
	c3.9-3.1,8.2-5.4,13.1-1.8C434.9,699,436.2,700.1,439.7,703z"/>
<path class="st48" d="M702.4,513.7c3.4-1.9,7-3.1,11-2.7c0.7,4.1,0.3,7.8-2.8,10.9c-3.7,2.7-7.4,3.4-11.1-0.1
	C700.5,519.1,701.4,516.4,702.4,513.7z"/>
<path class="st49" d="M699.5,521.8c3.7,0,7.4,0.1,11.1,0.1c-0.1,0.9-0.2,1.8-0.3,2.7c-1.3,1.8-2.2,3.8-3.5,5.7
	c-1.8,2.9-1.5,7.1-5.5,8.6c-3.3-1-6.1-2.3-4.5-6.7C694.4,527.8,696.2,524.6,699.5,521.8z"/>
<path class="st50" d="M379.9,627c-0.9,1.1-1.8,2.1-2.7,3.2c-1.1-1.7-2.1-3.4-3.2-5.1c-2.5-5.5-4.4-10.9,0-16.4
	c2,0.1,4.1,0.1,6.1,0.2C381.4,614.9,381.7,620.9,379.9,627z"/>
<path class="st40" d="M401.8,651.9c0.8-1,1.7-2,2.5-3c3-1.2,3.2,3,5.6,3c0.8,1,1.6,2.1,2.4,3.1c1.8,3.5,1.9,7-0.1,10.5
	c-4.9-2.3-8.1-6.2-11.2-10.4C400.3,653.8,400.6,652.7,401.8,651.9z"/>
<path class="st51" d="M618.7,681.9c-8.4-6.7-0.3-15-2.7-22.3c4.7,5.3-1.5,16.3,10.4,17C623.8,678.3,621.3,680.1,618.7,681.9z"/>
<path class="st52" d="M566.5,708.5c1.1-6.4-2.4-14.3,5.7-18.6c0,5.6,0,11.3-0.1,16.9C570.8,709.1,568.6,708.5,566.5,708.5z"/>
<path class="st53" d="M701.6,537.7c1.5-3.3-0.8-7.7,3.1-10.2c5.8,1.2,3.5,6.7,5.3,10c1,4.8-1.8,6-5.9,6c-0.6,0.3-1.3,0.3-2,0.3
	C700.7,541.9,700.4,539.9,701.6,537.7z"/>
<path class="st54" d="M344.3,511c-3.1,0.1-6.1,0.2-9.2,0.3c-2.8-3.4-1.4-7.4-1.5-11.2c2.6,0.9,5.3,1.8,7.9,2.7
	C342.5,505.5,343.4,508.3,344.3,511z"/>
<path class="st55" d="M696.9,567.9c1.6,1.7,3.3,3.3,4.9,5c-3.5,2.1,2.9,12-7.1,9.1c-1.9-0.3-3.2-1.4-4.2-3c-1.5-4.2,1.7-6.3,4.1-8.7
	C695.3,569.5,696.1,568.7,696.9,567.9z"/>
<path class="st56" d="M458.2,690c1,3.6,1.9,7.1,2.9,10.7c-2.8-1.9-5.6-3.7-8.4-5.6c1.6-6-2.9-13,2.9-18.3
	C458.7,680.8,455.1,686,458.2,690z"/>
<path class="st57" d="M691.4,578.8c1.1,1.1,2.2,2.1,3.3,3.2c0.4,5.6,0.9,11.1-3.3,15.7c-1,0.9-2.1,1-3.3,0.3
	c-2.3-2.4-3.3-5.2-2.8-8.4C688,586.4,684.5,579.5,691.4,578.8z"/>
<path class="st58" d="M401.8,651.9c-0.2,1-0.5,2.1-0.7,3.1c-2.9-0.5-4.9-1.9-5.2-5.1c0.2-3.9,0.3-7.7,0.6-12.9
	C400.2,642.4,401.3,647,401.8,651.9z"/>
<path class="st59" d="M385,639.4c0-3,0.1-6,0.1-8.9c5.9,4.8,5.9,12.2,8.1,18.7C389.3,646.9,385.9,644.2,385,639.4z"/>
<path class="st60" d="M670.2,633.2c0.6-5.5-2.8-11.6,2.4-16.4c7.3,2,3.8,6.7,2.8,10.8C673.6,629.5,671.9,631.3,670.2,633.2z"/>
<path class="st61" d="M688.8,597.7c0.8,0,1.7,0,2.5,0c-0.2,6-3.1,10.5-7.7,14.1c-0.1-4.7-0.2-9.4-0.3-14
	C685.2,596.3,687,596.1,688.8,597.7z"/>
<path class="st62" d="M349.4,573.9c-2.3-3.6-5-7-4.6-11.7c1.4-2.8,1.4-7,6.4-6.1c3.8,2,3.9,5.4,3.4,9
	C353.7,568.5,352.8,571.9,349.4,573.9z"/>
<path class="st63" d="M444.7,690c-2-4.6-3.9-9.3-0.3-14c1.6,0.3,1.8,1.9,2.6,3c0.1,4.6,0.2,9.2,0.3,13.7
	C446.5,691.8,445.6,690.9,444.7,690z"/>
<path class="st64" d="M349.8,557c-1.7,1.7-3.3,3.5-5,5.2c-0.2-3.7-4.4-6.5-2.7-10.7c2.1,0,4-0.6,5-2.7
	C353.5,549.8,351.9,553.4,349.8,557z"/>
<path class="st65" d="M307.7,502.8c4,0.9,8.1,1.7,12.1,2.6c0.7,2.1,1.4,4.1,2.1,6.2C316.1,510.3,310.8,508.3,307.7,502.8z"/>
<path class="st66" d="M355.4,581.4c-1,1.8-1.9,3.6-2.9,5.4c-0.7-1.1-1.4-2.2-2.2-3.3c2.5-5.2-1.1-11.3,2.4-16.3
	c1.6-0.3,2.9,0.2,3.8,1.5C359.1,573.2,358.4,577.5,355.4,581.4z"/>
<path class="st67" d="M364.1,611.1c0.5,0,0.9,0.1,1.4,0.3c1.4-0.9,2-2.5,3.2-3.6c1.1-0.3,2.1-0.1,2.9,0.8l0.1,0.4
	c1,3.9,4.4,8.5-2.7,10.4C367.3,616.6,365.7,613.8,364.1,611.1z"/>
<path class="st28" d="M352.8,568.3c-1.3,5,2,10.7-2.4,15.2c-0.3-3.2-0.6-6.4-0.9-9.6c0.9-2.9-0.3-6.6,3.1-8.6
	c0.8,0.6,1.1,1.2,0.9,1.9C353.2,567.9,353,568.3,352.8,568.3z"/>
<path class="st68" d="M675.4,627.6c-0.5-3.7,1.2-8-2.8-10.8c0-0.9,0.1-1.7,0.4-2.6c4.4-0.9,4.7,4.1,7.6,5.3
	C678.9,622.2,677.1,624.9,675.4,627.6z"/>
<path class="st69" d="M577.3,705.9c1.3-4.6,2.6-9.1,4-14.2c3.2,3.8,1.1,7.8,2.1,11.3C581.4,704,579.4,705,577.3,705.9z"/>
<path class="st70" d="M729.7,505.4c3.7-1.2,7.3-2.4,11-3.6c-1.7,7.1-8.4,7-13.4,9.4C728,509.2,728.9,507.3,729.7,505.4z"/>
<path class="st71" d="M369,619.3c3.7-2.8,2.2-6.9,2.7-10.4c0.8-0.2,1.6-0.3,2.4-0.3c0,5.5,0,10.9,0,16.4
	C372.4,623.1,370.7,621.2,369,619.3z"/>
<path class="st72" d="M431.2,682c4-2.9,2.3-7.3,2.9-11c2.3-0.5,3.7-0.1,2.8,2.7c-0.2,3.7-0.4,7.3-0.6,11
	C434.2,684.6,432.2,684.1,431.2,682z"/>
<path class="st46" d="M496.3,712.2c0.8-1,1.7-2,2.5-3c-1.1-2.8-2.5-5.6,2.6-5.6c1,3.5,2.1,7,3.1,10.5
	C501.5,714.5,498.5,715,496.3,712.2z"/>
<path class="st73" d="M506.8,714.1c0.3-2.9,0.6-5.9,0.9-9.1c4.2,2.2,4.1,6,5,9.2C510.8,714.1,508.8,714.1,506.8,714.1z"/>
<path class="st74" d="M709.9,537.6c-1.8-3.3-3.5-6.7-5.3-10c1.9-1,3.7-2,5.6-3.1C710.1,528.9,710,533.2,709.9,537.6z"/>
<path class="st75" d="M412.2,665.5c0-3.5,0-7,0.1-10.5c4.4,3.7,2.1,8.8,2.6,13.3C414,667.3,413.1,666.4,412.2,665.5z"/>
<path class="st76" d="M477.3,706.4c0.3-2,0.7-4.1,1-6.1c1.4,2.9,2.9,5.7,4.3,8.6C480.5,709,478.4,708.8,477.3,706.4z"/>
<path class="st77" d="M711.2,101.2c-0.2,1-0.4,1.9-0.7,2.9c-1.7,5-2.9,10.6-10,10.4c-2.6-0.2-4.9-1.3-7.2-2.6
	c-5.5-3.7-11.5-6-18.2-6.1c-3.7-0.5-6.4-2.8-9.3-4.8c-3.9-2.6-8.2-3.4-12.9-3.4c-1.2-0.2-2.3-0.5-3.3-1.1c-3.8-3-8.2-4.4-13-4.3
	c-5.3-0.8-10-3.4-15.1-4.9c-4.6-2.2-9.2-4.4-14.6-3.3c-1.2-0.1-2.3-0.4-3.4-0.9c-4.1-3-9.1-2.8-13.7-4c-5.8-1.7-11.8-0.9-17.7-1.1
	c-2.8-0.1-5.6-0.5-8.4-1.1c-7.1-2.4-14.5-1.2-21.7-1.6c-3.2-0.1-6.3-0.5-9.3-1.6c-5.4-2.1-9.3-5.4-9.8-11.6
	c-0.7-9.9-0.6-19.7-0.1-29.6c0.3-4.3,2.2-7.7,6.3-9.6c51.6,1.7,102.1,8.4,147.9,34.7c8.9,5.1,17.4,11.1,25.8,17.1
	C712,81.3,721.6,88.2,711.2,101.2z"/>
<path class="st77" d="M337,91c13-20.4,33.8-30.7,54.4-40.7c41.4-20,86-26,131.4-27.2c2.6,16.3,4.4,32.6-1.2,48.6
	c-2.4,2-5.1,3.3-8,4.2c-2.1,0.6-4.2,0.7-6.3,0.4c-4.5-1.1-9-1.4-13.6-1.3c-4.4,0-8.9-0.1-13.2,1.4c-1.9,0.5-3.8,0.9-5.8,1.1
	c-1.3,0.2-2.6,0.3-3.9,0.3c-8.5,0.4-16.6,2.8-24.9,4.5c-1.9,0.4-3.8,0.7-5.6,0.9c-5,0.4-9.5,2.4-14.2,3.9c-4,1.2-8.3,1.8-12.2,3.2
	c-1.1,0.4-2.3,0.7-3.4,1.1c-3.9,1.1-7.9,2.4-11.7,3.8c-2.8,1-5.5,1.8-8.2,3c-5.4,2.4-11,4.4-16,7.5c-2.2,1-4.5,1.4-6.9,1.9
	c-4.1,0.8-7.7,3.1-11.5,4.5c-9,3.4-9.1-5.6-13-9.4C340.7,99.1,334.4,97.4,337,91z"/>
<path class="st78" d="M517.3,71.3c4.9-1.8,6.4-5.3,6.2-10.5c-0.5-12.6-0.5-25.1-0.7-37.7c2.1-0.1,4.1-0.1,6.2-0.2
	c-4.6,13.4-1.2,27.3-2.1,40.9c-0.4,5.7,5.2,5.2,8,7.5C529,76.3,523.2,76.3,517.3,71.3z"/>
<path class="st79" d="M337,91c2.5,3.4,5,6.8,7.5,10.3c0.7,0.6,1,1.3,0.9,2.1c-0.1,0.8-0.2,1.2-0.4,1.2c-1.2,0.8-2.2,0.6-3.2-0.3
	c-3.9-3.5-10.2-1.1-13.6-5.5C330.1,95,332.6,92,337,91z"/>
<path class="st80" d="M729.8,104.1c-5-0.9-10-1.6-13.9-5.4C725.8,86.9,725.8,100.7,729.8,104.1z"/>
<path class="st81" d="M746.6,737.9c2.7,1.6,4.8,4.7,3.3,6.4c-3.3,3.7-3.7-0.2-4-2.5C745.8,740.5,746.4,739.3,746.6,737.9z"/>
<path class="st81" d="M303.8,747.2c-5.2-5.3-2-8.5,2.8-11.2C305.7,739.7,304.7,743.5,303.8,747.2z"/>
<path class="st82" d="M479.8,392c4.3,5.6,8.6,11.3,13,17c-29.3,8.9-58.9,6.6-88.3,7.6c-14.6,0.5-25.7-7.3-37.6-13.5
	c-7.9-4-1.5-6.3,1.4-8c13.6-7.8,27.4-15.3,41.1-22.9c2.8-2.3,6.4-2.1,9.7-2.8c2.7-0.5,5.3-1.3,8-1.9c7-1.5,13.9-1.2,20.6,1.3
	C460,374.3,474.2,377.2,479.8,392z"/>
<path class="st83" d="M648.3,377.5c13.3,6.2,26.1,13.2,39.1,22.1c-16.7,11.5-32.8,17.5-52.4,17.1c-25.6-0.6-51-1.7-76.3-5.8
	c-0.8,0.9-1.6,0.8-2.1-0.3c1.8-8,9.6-11.9,13.1-18.8c5.5-13.6,18.5-17,30-22.5c6.7-2.4,13.5-3.6,20.6-2.3c4,0.8,8,2,12,2.7
	C638,371.4,644.4,371.7,648.3,377.5z"/>
<path class="st84" d="M569.9,507.4c5.9,14.9,3.1,21.2-11.1,25.7c-7.6-0.4-13.3,3.2-18.5,8.2c-13,10.1-19.3,10-33-0.7
	c-4.7-6.9-12.4-6.2-19.3-7.7c-14.6-6.8-17.3-14.9-8.1-25c3.1,4.2-0.1,9.5,2.3,13.9c0.6,4.9,4.1,6.2,7.7,4.7
	c10.7-4.6,17.1,0.8,22.8,8.7c8.8,6.7,17.1,5.5,24.8-1.9c5.1-6,10.1-9.7,19.3-7.6c12.3,2.8,9.5-7.9,10.3-14.8
	C567.8,509.5,568,507.8,569.9,507.4z"/>
<path class="st85" d="M371.6,608.5l-1.3,0.1l-1.3,0c-1.8-2.8-2.2-5.5,0.3-8.1c7.2-9.2-8-15.5-3.1-24.4c-1.7-3.6,1.4-7,0.7-10.6
	c-0.2-1.8-2.2,0.8-0.5,0.2c0.9,4-1,7.2-3,10.4c-2.8,1.6-3.8,5.8-8,5.4c-0.1-4.5-0.3-9-0.4-13.5c0.5-1,1.1-1.9,1.8-2.8
	c2.7-2.3,3.4-5.5,3.9-8.8c0.4-1.7,1.3-3.2,2.7-4.3c0-1.2,0-2.3,0-3.5c7.4,8.1,14.7,16.3,22.1,24.4c-0.4,4.8-2.2,9.2-3.5,13.7
	c-0.6,1.1-1.3,2-2.3,2.8c-1,0.1-2,0.2-3,0.2c-2.8,4,0.5,9.2-2.4,13.1C373.4,604.8,372.5,606.6,371.6,608.5z"/>
<path class="st86" d="M520.9,556.7c10.6-2.7,21.5-2.1,32.3-2.5c2.6,2.2,5.8,3.9,6.7,7.6c0.4,5,5.5,9.6,1.5,15.1
	c-1.7,0.9-3.4,1.1-5.2,0.6c-4.1-2.2-6.9-6.1-11.1-8.1c-0.6-0.5-1.8-2.3-1.9-0.2c-0.2,2.8-0.9,5.1-2.7,7.1c-1.1,0.6-2.3,0.7-3.4,0
	c-3.1-2.1-5.2-4.6-3.8-8.3c-2.6,4.6,2.9,6.6,4,10.1c-2.6,4-6.3,3.7-10.1,2.3c-3.2-2-2.3-5.1-2.2-8.1c0.1-1.5,0.2-3-0.4-4.4
	c0,1.9-0.8,3.2-2.9,3.3c-5-3.6-4.4-8.2-2.3-13C519.9,557.6,520.4,557.2,520.9,556.7z"/>
<path class="st87" d="M558.6,562.1c-2-2.5-5.9-3.7-5.4-7.9c7.6-3.3,15.8-2.3,23.8-2.9c1.1-0.7,2.3-0.8,3.6-0.3
	c5.7,5.8,11.2,11.8,17.6,16.9c1.6,3,3.5,6,0.6,9.3c-3.8,2.3-7.7,2.3-11.8,0.8c-5.2-2.7-4.5-9.7-8.5-12c-1.5-2.4-2.8,0-1.4-1.2
	c0.3-0.2,0.6,0,1,0.7c2.1,3.3,5.2,6.3,2.9,10.8c-3.1,2.7-6.3,4.6-10.1,1.2C570.5,569.5,560.6,568.9,558.6,562.1z"/>
<path class="st88" d="M580.9,552c-1.3-0.2-2.6-0.4-3.9-0.7c15.1-4,30.2-6.4,44.5,2.7c-1.1,1-2.1,2.1-3.2,3.1c2,2,2.3,4.4,1.3,7
	c-4.2,4.5-7.7-0.8-11.6-0.8c-1.1-0.1-2.2-0.3-3.4-0.3c-2.3,0-4.3,0.6-6.2,1.9c-1,0.7-2.1,1-3.3,1.1
	C589.1,562.7,584.6,557.7,580.9,552z"/>
<path class="st89" d="M471.9,553.8c6.4-4.2,12.8-2.5,19.1,0.2c1.6,2.8-0.1,4.7-1.7,6.7c-6.2,4-10.8,9-11.1,16.9
	c-3.6,4.9-7.7,2.1-11.7,0.8c-2.8-1.3-5.9-2.2-8.3-4.3c-1.9-4.4,1.4-7,3.4-10C464.3,559.9,467.4,556.1,471.9,553.8z"/>
<path class="st90" d="M688.8,597.7c-1.8,0-3.6,0-5.4,0.1c-2.4-0.1-4.6-0.7-5.7-3.2c-3.5-1.6-4.4-4.9-5.2-8.3
	c-5-3.5-7.7,0.5-10.8,3.3c-1.7-1.6-3.4-3.2-5.1-4.8c4-7,9.9-12.2,15.7-17.5c6.1,6.5,13.4,12.2,13.8,22.3
	C687,592.3,687.9,595,688.8,597.7z"/>
<path class="st91" d="M452.9,548.9c5.3,0.7,11.3-2,15.8,3.2c-1.1,4.9-6.3,7.1-7.6,11.8c-2.9,5.2-6,10.4-8.7,15.8
	c-4.1,1.7-7.3,0.1-10.3-2.5c-2.2-3.1,0.8-8.2-4-10.3C437.9,556.7,446.1,553.4,452.9,548.9z"/>
<path class="st92" d="M556.5,410.6c0.8-0.5,1.5-0.4,2.1,0.3c-3.3,3-1.9,6.2-1.1,9.8c3.1,15,1.5,36.8-3.2,51.3
	c-4.3-2-3.5-6.1-3.2-9.4c1.3-15.6,2.5-31.2,2-46.9C553,413.4,554,411.4,556.5,410.6z"/>
<path class="st36" d="M686.1,589.6c-4.6-7.4-12.1-13-13.8-22.3c1-1.6,2.1-3.2,3.1-4.7c9.4-3.8,13.1,7.9,21.2,7.9
	c1.9,5-6.7,3.5-5.2,8.3C686.1,580.7,695.3,589.6,686.1,589.6z"/>
<path class="st93" d="M696.6,570.5c-9,2.7-14-5.6-21.2-7.9c4.4-6.4,8.8-12.8,13.2-19.2c2.5-0.8,3.3,0.3,2.9,2.7
	c1,6,4.1,11.7,1.1,18.1c-1.2,2.6,2,3.3,4.2,3.7C696.8,568.8,696.7,569.6,696.6,570.5z"/>
<path class="st94" d="M479.8,392c-9.8-8.2-19.2-17.2-32.4-19.8c-1.5-1.9-1.6-3.8,0.1-5.7c9.9-1.7,17.1,4.4,24.8,8.9
	C477.2,379.9,485.5,382.8,479.8,392z"/>
<path class="st95" d="M472.4,375.4c-8.8-1.2-15.9-7.6-25-7.8c-7.4,2.2-15.1,0.1-22.6,1.2c-2.4-0.2-4.6-0.8-4.3-4
	C439.4,360.6,458,357.8,472.4,375.4z"/>
<path class="st96" d="M599.6,371.6c-10.9,5.4-21.1,11.8-30,20.2c-6-7.6,4-9,5.3-13.8c3.5-4.6,8.8-6.6,13.6-9.4
	c4.2-1,8.1-3.5,12.7-2.4C604.1,369.1,602.4,370.5,599.6,371.6z"/>
<path class="st86" d="M487.9,560.3c1-2.1,2.1-4.2,3.1-6.2c9.9,1.2,20.2-1.3,29.9,2.7c0,0-0.4,0.5-0.4,0.5c-2.1,2-2.2,5.1-3.9,7.4
	c-0.9,0.9-1.9,1.3-3.1,1.3c-3.3-1.1-6.3-3.5-10-1.8c-1.5,0.8-3,1.6-4.6,2.1c-2.8,0.4-5.5,0.2-8.3,0.1c-1.8-0.3-3.1-1.3-3.7-3
	C486.8,562.2,487.1,561.1,487.9,560.3z"/>
<path class="st63" d="M452.9,548.9c-2.9,7.7-12.5,10.6-13.8,19.4c0.7,4.4-2.7,5.3-5.6,6.6c-2,0.3-3.8-0.1-5.2-1.7
	c-1.5-5.8,12.4-8.9,2.9-16.2c3.7-6.3,10.8-5.6,16.3-8.1C449.2,548.9,451.1,548.9,452.9,548.9z"/>
<path class="st97" d="M602.1,367.7c-4.4,0.8-8.9,1.6-13.3,2.5c-2.9,1.1-3.5-0.3-2.9-2.8c13.2-6.9,26.7-7.2,40.6-2.6
	c0.9,1.5,0.6,2.7-0.8,3.6c-2.1,0.6-4.3,0.2-6.4,0.2C613.5,368,607.7,369.7,602.1,367.7z"/>
<path class="st98" d="M447.7,315.5c-0.2-0.7-0.3-1.4-0.5-2c-1-2-4.5-3-2.7-6.3c6.1-3.5,12.8-1.3,19.2-1.7c1.6,1.5,2.4,3.4,2.4,5.6
	c-0.9,8.9-8.6,4.6-13,6.7C451.3,317,449.5,316.3,447.7,315.5z"/>
<path class="st99" d="M691.5,546c-1-0.9-1.9-1.8-2.9-2.6c1-5,2.4-9.7,8.1-11.2c1.6,1.9,3.2,3.7,4.8,5.6c0.2,2,0.4,4.1,0.6,6.1
	C700.8,555.1,695.5,547.7,691.5,546z"/>
<path class="st100" d="M536.8,340.2c2.4,10,8.2,18.4,11.9,28c-8.9-5.9-14.9-13.6-14.6-25.2C532.9,340.1,534.4,339.6,536.8,340.2z"/>
<path class="st101" d="M537.5,533.2c-8.4,12.8-15.6,13.3-24.8,1.9C521,535.4,529.4,536.7,537.5,533.2z"/>
<path class="st102" d="M471.9,310.3c4.1,1.2,6.4,6.1,11.4,5.4c0.7,0.8,1.5,1.6,2.2,2.5c3.5,3,5,6-0.1,8.9
	c-5.4-2.4-10.7-4.8-16.1-7.3c-1.5-1.2-1.6-2.7-1.2-4.4C468.8,313.3,469.8,311.4,471.9,310.3z"/>
<path class="st103" d="M603.9,307.4c3.8-4.5,7.5-2.2,11.3,0c5.4-1.7,7.6,1.6,9,6c-5.9,5.4-13.3-2.7-19.3,2.1c-1-0.9-1.9-1.8-2.9-2.6
	c-0.4-0.3-0.8-0.6-1.1-0.9c0-0.5,0.1-1,0.1-1.4C601.8,309.3,603.4,308.9,603.9,307.4z"/>
<path class="st104" d="M516.4,343.9c2.7,13.2-3,18.9-11.8,23.1C508.1,360.2,511.5,353.5,516.4,343.9z"/>
<path class="st105" d="M379.7,586.9c-0.2-5.5,1.2-10.4,5.8-13.9c3.7,2.7,7.3,5.4,11,8.1c0,0-1.1,0.7-1.1,0.7
	c-0.5,6.9-6.1,3.5-9.5,4.7C383.9,587.4,381.8,588.1,379.7,586.9z"/>
<path class="st106" d="M488.1,532.8c8.7-3.1,16.6-4.1,19.3,7.7C500.3,539.4,493.6,537.6,488.1,532.8z"/>
<path class="st107" d="M564,315.6c1.8,0.1,3.5,0.2,5.3,0.3c0.8,0.7,1.7,1.4,2.6,2c1.5,0.8,2.7,1.9,3.4,3.5c-1.9,1-3.9,2-5.9,2.9
	c-3.2,1.4-7.3,4.7-9.7,1.2C557,321.6,562.1,318.8,564,315.6z"/>
<path class="st108" d="M572.3,312.9c3.8-4.5,6.7-13.5,13.4-2.6c0.4,0.4,0.8,0.8,1.2,1.1c0,0.5,0,1.1,0,1.6c-0.4,1-0.9,1.9-1.6,2.8
	c-0.7,0.8-1.4,1.6-2.2,2.3c-1-0.1-1.9-0.1-2.9-0.2c-0.8-0.5-1.6-0.8-2.6-1c-1.3-0.6-2.4-1.3-3.5-2.2
	C573.5,314.3,572.9,313.6,572.3,312.9z"/>
<path class="st109" d="M540.3,541.3c3.8-8.1,8.3-14.5,18.5-8.2C553.3,537.4,547.2,540.2,540.3,541.3z"/>
<path class="st110" d="M340.4,394.9c6.8-4.4,11.7-1.6,16.9,3.6C350.1,400.8,345.9,395.3,340.4,394.9z"/>
<path class="st111" d="M648.3,377.5c-5.5-1.7-10.9-3.5-16.4-5.2c-0.6-0.6-0.8-1.1-0.8-1.8c0.1-0.7,0.2-1,0.4-1
	c1.7-1.3,4.3-0.3,5.8-2.2C640,371.6,651.5,366.6,648.3,377.5z"/>
<path class="st112" d="M458.8,562.6c-0.1-6.7,6.3-7.3,9.9-10.5c1.1,0.6,2.1,1.2,3.2,1.7c-2.7,3.8-5.4,7.6-8.1,11.4
	C461.6,565.2,460,564.2,458.8,562.6z"/>
<path class="st110" d="M694.3,399.7c3.3-5.8,7.6-10.3,15.9-4.3C703.8,397.2,699.1,398.5,694.3,399.7z"/>
<path class="st113" d="M469.2,315.9c0,1.3,0,2.6,0,3.9c-5.4-0.7-10.8-1.4-16.2-2c2.7-3.7,10.4,0,10.8-7.1
	C468.3,309.7,470.2,311.4,469.2,315.9z"/>
<path class="st17" d="M447.4,548.8c-5.2,3.2-10.1,6.9-16.3,8.1c0,0,0.2,0.1,0.2,0.1c-1.3-1-3.3-1.4-3.4-3.6
	C433.6,548.9,440.4,548.2,447.4,548.8z"/>
<path class="st104" d="M562.5,424.2c7.4,3.1,8.7,8,9.6,14.8C567.2,435,564.2,431.2,562.5,424.2z"/>
<path class="st114" d="M536.8,340.2c-0.9,0.9-1.8,1.9-2.7,2.8c-4.3-4.9-2.3-10.6-0.9-16.4C534.4,331.1,535.6,335.7,536.8,340.2z"/>
<path class="st115" d="M427.9,553.5c1.1,1.2,2.3,2.4,3.4,3.6c-1.7,0.9-3.3,1.9-5,2.8c-2.9,1.5-3.4,7-8.4,5.3
	c-0.1-0.9-0.1-1.8-0.2-2.7C420.2,558.5,423.5,555.4,427.9,553.5z"/>
<path class="st116" d="M585.8,367.3c1,0.9,2,1.9,2.9,2.8c-4.6,2.6-9.2,5.3-13.8,7.9C575.9,371.8,581.5,370.2,585.8,367.3z"/>
<path class="st104" d="M485.2,427.2c0,4.4-2.2,7.3-6.9,9.1c-0.2-4.6,1.5-7.8,4.9-10.2C483.4,426,484.4,426.8,485.2,427.2z"/>
<path class="st117" d="M420.5,364.8c0.9,0.8,1.9,1.7,2.8,2.5c0.9,1.1,2.6,1.3,2.9,3c-1.7,1.7-3.7,2-6,1.6c-2.1-2.6-8.6,2.6-8-4.6
	C415,366.5,417.8,365.7,420.5,364.8z"/>
<path class="st118" d="M485.3,327c1.6-2.9,2.3-5.9,0.1-8.9c4.9-0.8,6.1,2,5.3,6C490.3,327,489.7,330.8,485.3,327z"/>
<path class="st119" d="M482.2,521.7c-4-4.1-1.7-9.2-2.3-13.9C485.2,511.7,480.4,517.3,482.2,521.7z"/>
<path class="st120" d="M341.2,406.2c4.7-1.4,6.8-2.1,8.8-2.5c0.2,0,1.2,1.6,1,2C349.4,408.6,346.8,408.1,341.2,406.2z"/>
<path class="st121" d="M569.9,507.4c-0.9,1.2-1.8,2.3-2.8,3.5c-0.8-2.8-5-5.8-2-8.2C567.1,501.1,569.2,504.8,569.9,507.4z"/>
<path class="st122" d="M637.2,367.3c-1,2.4-3.2,2.6-5.4,2.8c-3,1.4-4.4-0.4-5.4-2.8c0-0.9,0-1.7,0-2.6
	C630,365.6,633.6,366.4,637.2,367.3z"/>
<path class="st123" d="M412.2,367.3c2.7,1.5,5.3,3.1,8,4.6c-3.6,1.2-7.2,1.7-10.8,0.3C409.6,370.1,410,368.2,412.2,367.3z"/>
<path class="st124" d="M575.3,321.4c-1.9-0.9-3.9-1.8-5.8-2.6c0.8-1.1,1.6-2.2,2.7-3.1l0,0c0.8-0.9,1.7-1.1,2.8-0.7
	c0.8,0.6,1.6,1.4,2.3,2.2c0.2,0.5,0.4,1,0.6,1.5C577,319.6,576.2,320.5,575.3,321.4z"/>
<path class="st125" d="M593.6,315.3l-1.3,0.2l-1.3-0.3c-0.8-0.5-1.7-0.9-2.6-1.2c-0.3-0.4-0.6-0.8-0.9-1.2c-0.2-1,0.1-1.9,0.9-2.6
	l0-0.1c2.5-1.7,5.1-2.4,7.9-0.8c1.2,1.1,1.3,2.3,0.4,3.7l0.1,0.1C595.6,313.8,594.9,314.9,593.6,315.3z"/>
<path class="st126" d="M583.1,318.2c0-0.8,0-1.6-0.1-2.4c1-0.9,1.9-2,2.9-2.9l-0.1,0c0.9-1,1.8-1,2.7-0.1l0.2,0.4
	c0.6,0.6,0.7,1.2,0.5,1.7c-0.2,0.5-0.5,0.8-0.7,0.8C587.5,318.6,585.6,319.2,583.1,318.2z"/>
<path class="st127" d="M596.6,313c-0.1-0.9-0.1-1.8-0.2-2.7c1.9-1.7,3.7-1.5,5.6,0c0,0.9,0,1.7,0,2.6
	C600.2,312.9,598.4,313,596.6,313z"/>
<path class="st128" d="M588.5,316c0-0.8,0.1-1.7,0.2-2.5c0.8,0.6,1.6,1.2,2.3,1.8C590.2,315.6,589.4,315.8,588.5,316z"/>
<path class="st129" d="M593.6,315.3c1-0.7,2.1-1.5,3.1-2.2C595.7,313.8,594.6,314.5,593.6,315.3z"/>
<path class="st130" d="M577.7,315.8c0.8,0.8,1.7,1.5,2.5,2.3c-0.7,0.5-1.5,0.7-2.3,0.6c0,0-0.3-0.2-0.3-0.2
	c-0.7-0.6-0.9-1.2-0.6-1.8C577.2,316.1,577.4,315.8,577.7,315.8z"/>
<path class="st131" d="M645.5,313c-6.3,0.4-12.7,3.3-19,0.1c-1.5-1.3-1.7-3-1.1-4.8c1.9-2.6,4.2-1.2,6.4-0.6c3.9-0.4,8,4.5,12-0.8
	c0.8-1.1,4.5-0.2,4.7,2.3c0.1,1.2-2.1,2.6-3.2,3.9C645.4,313.1,645.5,313,645.5,313z"/>
<path class="st132" d="M444.4,307.2c0.9,2.1,1.8,4.2,2.7,6.3c-5.3,0.5-10.6,0.9-16,1.4c-2.1-3.7-3.2-7.1,3-7.5
	C437.6,307.3,441,307.3,444.4,307.2z"/>
<path class="st133" d="M434.2,307.4c-3.1,1.6-3,4.6-3,7.5c-2.2,0.6-4.1,0.3-5.5-1.6c-1.4-1.6-2.3-3.4-2.5-5.5
	c-0.1-3.9,1.9-6.5,5.3-8c0,0-0.1-0.2-0.1-0.2C431.9,301,433.8,303.7,434.2,307.4z"/>
<path class="st134" d="M626.4,307.6c0,1.8,0,3.6,0.1,5.4c-0.8,0.1-1.5,0.2-2.3,0.3c-3-2-6-4-9-6c0.6-5.6,4.8-5.4,8.8-5.4
	C625.5,303.5,626.7,305.3,626.4,307.6z"/>
<path class="st135" d="M602,310.3c-1.9,0-3.7,0-5.6,0c-2.7,0-5.4-0.1-8-0.1c3.1-8.5,7.4-10.6,13.7-2.7c0.6,0.6,0.8,1.2,0.6,1.8
	C602.4,310,602.2,310.3,602,310.3L602,310.3z"/>
<path class="st136" d="M645.4,313.1c4.5,0,8.9,0,13.8,0C649.8,321.3,649.8,321.3,645.4,313.1C645.5,313,645.4,313.1,645.4,313.1z"/>
<path class="st137" d="M469.2,315.9c-1.1-2.5-2.7-4.4-5.4-5.3c-0.1-1.7-0.2-3.4-0.2-5.1c4.1-0.7,7.9-0.8,8.2,4.8
	C471.8,312.6,471.3,314.6,469.2,315.9z"/>
<path class="st138" d="M626.4,307.6c-2.4-1.2-2.4-3.4-2.4-5.6c6-2.9,7.5,0.6,7.9,5.6C630,310.7,628.2,307.5,626.4,307.6z"/>
<path class="st139" d="M602,310.3c0-0.9,0-1.8,0-2.7c0.6,0,1.2-0.1,1.8-0.1C603.3,308.4,602.7,309.3,602,310.3z"/>
<path class="st140" d="M574.9,315.7c-0.9,0-1.8,0-2.7,0c0.1-0.9,0.1-1.9,0.2-2.8c1,0,1.9,0.1,2.9,0.1
	C576,314,575.9,314.9,574.9,315.7z"/>
<path class="st141" d="M588.5,313c-0.9,0-1.8,0-2.7,0.1c0-0.9,0-1.8,0-2.7c0.9,0,1.8,0,2.7,0C588.5,311.2,588.5,312.1,588.5,313z"/>
<path class="st142" d="M572.2,315.7c-0.9,1-1.8,2-2.7,3.1c-0.1-0.9-0.1-1.9-0.2-2.8C570.3,315.8,571.2,315.8,572.2,315.7z"/>
<path class="st3" d="M507.6,74c1.4,0,2.8,0.1,4.2,0.1c9.9-2.2,20-0.5,30-1c7.4,0.5,15-1.2,22.3,1.1c2.6,0.1,5.3,0.2,7.9,0.4
	c4.3,2.6,9.2,0.4,13.6,1.6c5.8,3.6,13.6,0.7,18.8,6c0.8,0,1.6,0,2.4,0.1c5.3-1.1,9.8,1.7,14.6,2.8c5.9-0.4,10.5,2.9,15.4,5.4
	c5.8-0.6,10.3,2.1,14.8,5.2l1.3,0.1c5.3-1,9.7,3.2,14.9,2.9c2.2,1.8,4.3,3.5,6.5,5.3c7.6-0.6,13.4,5.2,20.6,5.7c1.6,1,3.2,2,4.7,3
	c5.9,2,11,4.6,9.5,12.3c3.7,4.2,1.5,9.9,3.9,14.4c1.1,5.4,2.1,10.8,3.2,16.3c5,5.5,2.9,13.3,6.1,19.4c1.1,5.4-1.1,11,1.4,16.2
	c-0.2,0.7-0.1,1.4,0.2,2.1c2.7,4,0.9,8.6,1.4,12.8c0,2.2,0.4,4.4-0.9,6.4c-2,9.4,4.7,22.8-3.4,27.5c-5.9,3.5-17.6-3.4-26.8-5.2
	c-64.2-12.4-128.9-19.7-194.3-16.3c-55.1,2.9-110.1,8.3-163.6,23.4c-1.7,0.5-3.6,0.3-5.4,0.4c-3-11-0.7-22.2-1.3-33.3
	c1.9-5.9,0.4-12.6,3.6-18.3c0.9-3-0.6-5.3-2.2-7.6c4.6-4.7,3.7-10.8,4.2-16.5c2.2-6.9,4.1-13.8,5.2-20.9c1.2-3.7,3-7.2,2.8-11.2
	c2.4-4.7,2.9-9.8,3.5-14.9c0.7-4.4,4.3-6,7.6-7.8c4.4-2,8.8-3.8,12.2-7.3c2.2-0.3,4.4-0.5,6.5-0.8c5.2-2.5,10.8-3.9,16-6.3
	c3.5-2.5,8.2-2.3,11.8-4.8c3.5-0.7,6.8-1.6,9.2-4.5c0.5-0.2,1-0.3,1.5-0.2c6.1,0.7,11.6-1,16.9-3.8c4.2-0.5,8-1.7,11.5-4.2
	c1.5-0.1,3-0.1,4.5-0.2c9.5-0.5,18.8-1.8,27.7-5.2c0.7-0.3,1.4-0.3,2.1-0.1c5.9,2.4,11.4-0.8,17.2-1.3c1.3-0.2,2.7-0.3,4-0.3
	C499.4,73.4,503.6,72.3,507.6,74z"/>
<path class="st143" d="M724.5,212.6c0-1.8,0.1-3.6,0.1-5.4c0.8-1.1,1.5-1.2,2.2,0c5.3,12.2,1.3,25.2,3,37.7
	c-5.6-5.4-1.9-12.4-2.9-18.5C726.1,221.8,728.1,216.7,724.5,212.6z"/>
<path class="st144" d="M331.1,207.3c-0.1,11.7-0.1,23.4-0.2,35.2c-1.1,0.8-2.1,1.7-3.2,2.5c0.2-12.5,0.4-25,0.6-37.6
	c0.5-0.3,0.9-0.7,1.4-1C330.2,206.6,330.6,207,331.1,207.3z"/>
<path class="st145" d="M341.8,145.2c-0.3,7.5-2.1,14.7-5,21.6c-1.1,1.2-2.1,1.1-3.1-0.2c2.5-9.2,3-18.9,7.7-27.5
	C343.3,141,343.2,143.1,341.8,145.2z"/>
<path class="st146" d="M341.7,104.2c0.9,0,1.8,0,2.7,0c6.2,3.7,4.1,9.5,4,14.9c-0.7,2.7-1.8,5.2-4.3,6.8
	C339.3,119.1,342.8,111.4,341.7,104.2z"/>
<path class="st147" d="M333.8,166.6c1,0.1,2,0.1,3.1,0.2c-2,5.5,3,13.4-5.8,16.5C332,177.7,332.9,172.2,333.8,166.6z"/>
<path class="st148" d="M344.1,125.9c0.9-1.8,1.9-3.6,2.8-5.4c0.9-1.2,1.7-1.3,2.6,0c-0.8,5-1.7,10-4.8,14.2c-2-1.9-1.9-4-0.3-6.1
	C344.3,127.6,344.2,126.7,344.1,125.9z"/>
<path class="st149" d="M344.4,128.5c0.1,2,0.2,4.1,0.3,6.1c-0.2,3.7,0.2,7.6-2.9,10.5c-0.1-2-0.2-4-0.3-6.1
	C341.8,135.4,340.8,131.3,344.4,128.5z"/>
<path class="st150" d="M333.3,190.9c0,5.6,1.5,11.3-2.2,16.4c0,0-0.5-0.1-0.5-0.1c-1.5-4.6-1.8-9.1,0.2-13.7
	C331.6,192.7,332.4,191.8,333.3,190.9z"/>
<path class="st151" d="M330.7,193.5c-0.1,4.6-0.1,9.1-0.2,13.7c-0.7,0-1.5,0.1-2.2,0.1C328.5,202.6,326.7,197.6,330.7,193.5z"/>
<path class="st152" d="M708.4,125.8c0.1-6.4-5.7-8.9-8.8-13.1c6.6,0.9,6.5-6.6,10.8-8.6c0.1,1,0.1,2,0.2,2.9
	c1.7,4.4,1.6,8.8,0.1,13.3c0,1.8,0,3.7,0,5.5C710,126.9,709.2,126.9,708.4,125.8z"/>
<path class="st153" d="M721.1,174.8c-3.2-6-3.5-12.7-4.8-19.1c8.7,3.9,4.4,12.9,7.5,19.1C722.9,176,722,176,721.1,174.8z"/>
<path class="st154" d="M708.4,125.8c0.8,0,1.6,0,2.3,0c4.1,4,2.2,9,2.3,13.6C709.4,135.6,710.3,130.2,708.4,125.8z"/>
<path class="st155" d="M721.1,174.8c0.9,0,1.8,0,2.7,0c0,5.5,0,11,0,16.6C719.9,186.3,721.6,180.4,721.1,174.8z"/>
<path class="st156" d="M710.8,120.3c0-4.4,0-8.8-0.1-13.3C714.4,111.5,714.4,115.9,710.8,120.3z"/>
<path class="st157" d="M726.8,207.3c-0.7,0-1.5,0-2.2,0c-0.2-4.6-0.4-9.2-0.6-13.8C728.6,197.3,726.3,202.6,726.8,207.3z"/>
<path class="st18" d="M433.3,598c0.9-2.7,1.7-5.4,2.6-8c9,3,11.6,11.7,16.7,18.3c12.1,17,27.5,29.3,48.2,34.5c3.8,1,9.7-0.1,9.6,6.8
	c-2.4,10.4-9,15.7-19.6,16.1c-0.9,0.9-2,1.4-3.1,1.8c-1.2,0.1-2.4-0.1-3.6-0.6c-0.4-0.4-0.9-0.9-1.3-1.3c-7.4-2.7-14.9-5.3-22.2-8.2
	c-10.8-4.3-18.1-12.5-23.4-22.5C426.7,623.5,430.2,610.7,433.3,598z"/>
<path class="st158" d="M510.3,649.6c-20.9-5.9-40.6-13.9-54.8-31.5c-2.2-2.8-5.4-4.8-5.6-8.9c4-2.5,6.8,0.5,9.7,2.2
	c35.2,21.3,72.4,21,110.7,10.6c11-3,19.5-11,30.4-14.2c5.9,5.7,0.6,9.7-2.7,13.2c-11.1,11.8-23.6,21.8-39.3,26.7
	c-5.6,1.7-10.9,3.9-15.6,7.4c-1.4,0.7-2.6,0.4-3.5-0.9C531.2,644.8,520.2,650.8,510.3,649.6z"/>
<path class="st90" d="M433.3,598c0.2,12.4,0.5,24.8,3.8,36.8c-0.6,5.4-1.2,10.8-5.9,14.4c-2.7-1.8-5.4-3.6-8.1-5.4
	c-2.8-3.8,0.2-6.9,1.1-10.3c0-3.9,5.4-6.8,2-11.3C423.4,612.6,428.3,605.3,433.3,598z"/>
<path class="st159" d="M529.1,705.5c0-15.1,0-30.3,0-45.4C536.9,675.1,535.4,690.3,529.1,705.5z"/>
<path class="st160" d="M520.9,657.1c4.6,6.5,1.9,13.8,2.4,20.7c0.1,2.1-0.2,5.4-2.9,4.9c-3.2-0.7-2.2-4.2-2.1-6.8
	C521.3,670,517.2,663,520.9,657.1z"/>
<path class="st161" d="M477.6,671.3c0.4-3.1,2.7-4.6,5.1-5.8c0,0,0,0,0,0c3.4,3.5,3.9,7.9,4,12.4c-0.6,5.8,1.5,11.9-1.4,17.6
	c-5.4-4.2,0.3-11.9-5-16.2C477.3,677.3,479.9,673.5,477.6,671.3z"/>
<path class="st162" d="M458.2,690c-4-3.8-2.2-8.7-2.6-13.2c-0.5-3.1-4.5-6.3,2.6-10.6C458.2,675,458.2,682.5,458.2,690z"/>
<path class="st163" d="M436.9,673.7c-0.9-0.9-1.9-1.8-2.8-2.7c-3.9-4.6-5.5-8.8,2.5-10.7C436.1,664.8,442.3,669.1,436.9,673.7z"/>
<path class="st164" d="M496.7,690.2c1-4,1.9-7.9,2.9-11.9c0.6,0.2,1.1,0.3,1.7,0.5c0,6.4,0,12.8,0,19.3
	C494.7,698.4,499.6,692,496.7,690.2z"/>
<path class="st39" d="M509.5,664.9c0.3-1.7,0.5-3.5,0.8-5.2c2.3,8.2,4.5,16.4-0.3,24.3C507.4,677.8,508.3,671.4,509.5,664.9z"/>
<path class="st68" d="M485.3,695.5c0-6.5,0-12.9,0-19.4c-0.9-1.2-0.6-2.3,0.6-3.1c2.1,0.3,3.9,0.8,2.4,3.6
	c-0.3,6.4-0.6,12.7-0.9,19.1c0,0.2-0.6,0.5-0.9,0.4C486,696,485.6,695.7,485.3,695.5z"/>
<path class="st165" d="M496.7,690.2c1.5,2.6,3.1,5.2,4.6,7.8c0,1.9,0,3.8,0.1,5.7c-0.9,1.9-1.7,3.7-2.6,5.6
	C494.5,703.3,496.6,696.6,496.7,690.2z"/>
<path class="st166" d="M520.9,657.1c-1.5,6.2,2.3,13.1-2.5,18.8c-0.1-7-0.2-13.9-0.2-20.9c0-0.2,0.6-0.5,1-0.7
	C519.7,655.3,520.3,656.2,520.9,657.1z"/>
<path class="st167" d="M539.7,654.2c0.8,0.2,1.7,0.3,2.6,0.4c4.4,1,6.6,4,7.5,8.2c0.1,2.1-0.4,3.9-2,5.3
	C541.6,665.5,540.3,660.1,539.7,654.2z"/>
<path class="st168" d="M447.1,678.9c-0.9-1-1.8-2-2.6-3c0.4-4.7-0.9-9.6,3.9-17.4C447.8,667.6,447.4,673.3,447.1,678.9z"/>
<path class="st28" d="M547.8,668.2c0-1.8,0.1-3.6,0.1-5.5c5.5-3.2,6.4,1.2,7.8,4.7c0.1,1.1,0.1,2.1,0.2,3.2c-0.9,1-1.8,2.1-2.7,3.1
	C550.6,672.6,548.8,670.8,547.8,668.2z"/>
<path class="st169" d="M469.4,673.8c0.9-1.9,1.8-3.8,2.7-5.7c2.4,4.9,3.9,9.7,0.2,14.4C469,680.3,471.9,676.1,469.4,673.8z"/>
<path class="st170" d="M509.5,664.9c0.1,6.4,0.3,12.8,0.4,19.1C505.2,677.8,506.2,671.4,509.5,664.9z"/>
<path class="st171" d="M547.4,684.7c-0.9,1.9-1.7,3.7-2.6,5.6c-3.1-3.8-3-8-1.8-12.5C547.3,678.5,547.4,681.6,547.4,684.7z"/>
<path class="st159" d="M477.6,671.3c3.2,1.9,2.1,5.3,2.7,8.1c-0.7,1.5-1.2,5.4-2.9,0.8C476.4,677.6,477.5,674.3,477.6,671.3z"/>
<path class="st172" d="M469.4,673.8c3.2,2.1,2.3,5.6,2.9,8.7c-0.7,2-1.6,5.3-3.1,0.7C468.2,680.3,469.2,676.9,469.4,673.8z"/>
<path class="st159" d="M488.2,676.6c-0.8-1-1.6-1.9-2.3-2.9c-2.4-3.6,0.4-5.7,2.4-8c0.8-0.3,1.6-0.3,2.5-0.1
	C490.9,669.5,491.4,673.5,488.2,676.6z"/>
<path class="st173" d="M462,669.9c2.6,3.8,1.6,6.7,1.4,10.6C459.9,677.1,461,674.2,462,669.9z"/>
<path class="st174" d="M602.1,608.6c-35.7,31.9-117.7,31.3-152.1,0.6c-4.7-6.4-9.4-12.8-14.1-19.2c-0.8-6.4-18.1-5.3-7.6-16.8
	c1.9,0,3.9,0,5.8,0c3.8-2.2,6.3-0.6,8.2,2.8c3.4,0.8,6.7,1.7,10.1,2.5c1.6-2.2,3.4-4,6.5-2.9c3.6,2.1,7.4,3.3,11.5,3.7
	c37.4,4.4,74.8,5.1,112.1-0.6c4.7,0.3,9.4,0.1,14.1-1.1c4.6,0,7.3-3.4,10.7-5.8c0.8-0.8,1.7-1.5,2.7-2.2c1.1-0.5,2.2-0.7,3.4-0.7
	c2.9,0.2,5.7,1.3,8.4,2.3c2.4,0.9,3.7,2.8,4.6,5c1.1,8.2-10.4,6.3-10.7,13.4C615.4,599,610.4,605,602.1,608.6z"/>
<path class="st175" d="M602.1,608.6c4.5-6.3,9-12.7,13.5-19c9.9,30.3-4.2,62.9-26.8,68.1c-6.5,1.5-12.9,3.8-19.3,5.7
	c-4.3,2.2-9.8,0.5-13.8,4c-2.8-1.2-4.1-5-7.8-4.7c-1.9-2.7-3.7-5.4-5.6-8.1c0.3-6.5,5-7,10.1-8.5
	C573.5,639.8,591.2,628.7,602.1,608.6z"/>
<path class="st176" d="M661.3,622.2c-1.7,0.9-3.3,1.7-5,2.6c-4-2.2-6.3-5.8-8.6-9.5c-0.5-1.2-0.4-2.4,0.3-3.5
	c-0.2-5.1-9.3-11.1-1.7-14.6c5.4-2.5,11.6,3.4,13.7,10.4c0.4,1.2,1.2,2.4,1.8,3.5C660.5,614.8,665.2,618.7,661.3,622.2z"/>
<path class="st160" d="M642.7,638.4c-6,4.2,0.3,12.4-5.5,16.6c-7-10.3,2.4-18.5,3-28.6c2.1,2.6,3.6,4.6,5.2,6.5
	c-0.1,1.9-0.2,3.7-0.3,5.6C644.3,639.7,643.5,639.6,642.7,638.4z"/>
<path class="st177" d="M626.3,576.2c-1.7-1-3.5-2-5.2-3.1c-4.7-2.3-3.7-5.3-0.9-8.5c1.8-1.9,4.1-2.2,6.5-2.3
	C632.4,567.1,632.1,571.7,626.3,576.2z"/>
<path class="st66" d="M651.2,627.5c0,4.4,0,8.8,0,13.6c-4.7-1.6-1.9-7.1-5.8-8.2c-0.1-3.5-0.2-6.9-0.2-10.4
	c-0.9-2.9,0.7-3.6,3.1-3.8C651.8,620.8,653.4,623.5,651.2,627.5z"/>
<path class="st115" d="M606,663.1c5.1,7.9,4.6,12.1,3,17.2C603.1,676.2,604.9,671.5,606,663.1z"/>
<path class="st58" d="M572.3,684.3c0.8-4.6-2-9.9,2.6-13.8C579.4,680.7,579,683.2,572.3,684.3z"/>
<path class="st60" d="M661.3,622.2c1.3-3.7-4.4-7.6,0.5-11.1c0.8,0.2,1.6,0.5,2.5,0.7c0,4.3,0.2,8.7,0.1,13c0,0.9,0.3,3.3-1.6,2.1
	C661.6,626.3,661.7,623.8,661.3,622.2z"/>
<path class="st178" d="M626.7,562.3c-1.2,2.4-3.3,2.8-5.7,2.9c-0.9,1.1-1.8,1.2-2.7,0c0-2.7,0-5.3,0.1-8
	C622.6,556.4,624.9,559,626.7,562.3z"/>
<path class="st179" d="M629.9,627.5c3.2,4.4,1.7,9,1.5,15.4C627.8,636.8,629.8,632.2,629.9,627.5z"/>
<path class="st179" d="M623.4,644.4c-2.7-3.9-2.9-8-1.4-12.5c3.5,2.4,4.2,5.7,4.1,9.3C625.2,642.3,625,644,623.4,644.4z"/>
<path class="st179" d="M648,619.4c-0.9,1-1.9,2.1-2.8,3.1c-5.9-5.4-4.9-9,2.9-10.8c-0.1,0.7-0.2,1.3-0.2,2
	C648,615.7,649.8,617.5,648,619.4z"/>
<path class="st39" d="M623.4,644.4c0.9-1.1,1.8-2.1,2.7-3.2c0,4.3,0,8.6,0,13.4C621.8,651.7,624.2,647.6,623.4,644.4z"/>
<path class="st112" d="M661.6,592c1.8,2.8,3.6,5.5,5.4,8.3C661.7,599.8,659.4,597.4,661.6,592z"/>
<path class="st180" d="M633.9,592.3c1.5,2.8,2.6,4.2,3,5.7c0.2,0.8-0.8,1.9-1.2,2.9c-0.9-1.4-2.1-2.7-2.7-4.2
	C632.7,596,633.3,594.9,633.9,592.3z"/>
<path class="st181" d="M629.4,608.2c-0.9-2.8-1.8-5.6-3.1-9.5c4.5,1.4,5.1,4.2,5.8,7C633,608.5,631.9,609.1,629.4,608.2z"/>
<path class="st182" d="M629.4,608.2c0.9-0.8,1.8-1.7,2.7-2.5c2.5,2.6,3.8,5.4,1.1,8.7C632,612.4,630.7,610.3,629.4,608.2z"/>
<path class="st68" d="M587.1,666.5c1.9,4.5,2.2,7.5,0.4,10.7C584.8,674,585.4,670.9,587.1,666.5z"/>
<path class="st84" d="M745.3,417.1c0.3-1.5,0.5-3,0.8-4.5c11.2,11.2,11.5,25,9.4,39.4C753.4,439.9,750.7,428.1,745.3,417.1z"/>
<path class="st183" d="M425.8,307.5c0,1.9,0,3.8,0,5.7c-6.5-0.9-13.3,2.7-20.1-1.7c2.1-5.7,8.5-3.5,12-6.3
	C420.7,304.6,423.5,305,425.8,307.5z"/>
<path class="st184" d="M425.8,307.5c-2.9,0-6.1,0.7-8.1-2.3c2-5.2,6.1-6.2,11-5.5C427.7,302.3,426.7,304.9,425.8,307.5z"/>
<path class="st185" d="M395.8,318.2c-1.8-1.1-3.5-2.3-5.1-3.3c10.1-2.3,10.1-2.3,7.6,5.8C397.1,320.2,396.3,319.4,395.8,318.2z"/>
<path class="st186" d="M395.8,318.2c0.8,0.8,1.7,1.7,2.5,2.5c-4.3,0-8.7,0-13.8,0C388.3,316.9,392.3,319,395.8,318.2z"/>
<path class="st187" d="M300.8,413.2c2.2,1,2.9,2.9,2.9,5.2c-6.3,11-8.7,23-8.1,35.6c-0.9,1.3-1.7,1.3-2.4-0.1
	C292,439.6,290.9,425.4,300.8,413.2z"/>
<path class="st188" d="M293.2,453.9c0.8,0.1,1.6,0.1,2.4,0.1c0.9,2.7,3.8,5,1.6,8.6C294.1,460.4,293.2,457.3,293.2,453.9z"/>
<path class="st189" d="M385.1,584.2c2.1-6.9,8,3.2,10.4-2.3c5.1,6.2,7.1,13.3,6,21.3c-0.9,0.8-2,1.3-3.2,1.3
	c-1.1,1.6-2.4-4.6-3.8,0.1c-1.1,3.7-3.3,7-6.6,9.4c-3.2-2-2.6-5.3-2.9-8.3C383.3,598.5,382.6,591.3,385.1,584.2z"/>
<path class="st190" d="M417.8,565.2c2.8-1.8,5.6-3.5,8.4-5.3c-3.4,6.9-6.9,13.8-11.4,22.8C410,574.3,415.9,570,417.8,565.2z"/>
<path class="st191" d="M423,649.4c3.5,4.8,3.7,8.3,0.2,13.4C419.7,657.9,419.5,654.4,423,649.4z"/>
<path class="st192" d="M398.7,603.2c0.9,0,1.8,0,2.7,0c0.8,0,1.7,0.1,2.5,0.1c-1.2,3.9,3.8,10.8-5.3,10.8
	C395.3,610.4,395.8,606.7,398.7,603.2z"/>
<path class="st193" d="M417.9,625.1c-0.2,2.5-0.4,5-0.8,9.4c-3.3-5.9-1.9-10.4-2-14.8C420.3,619.3,418.9,622.3,417.9,625.1z"/>
<path class="st193" d="M426.1,622.2c8.6,4.1-0.2,7-0.7,10.4c-0.5,0.1-1.1,0.1-1.6,0.2C424.5,629.3,425.3,625.8,426.1,622.2z"/>
<path class="st194" d="M423.8,632.8c0.5-0.1,1.1-0.1,1.6-0.2c-0.8,3.7-1.5,7.5-2.3,11.2C419,639.9,419.2,636.2,423.8,632.8z"/>
<path class="st195" d="M417.8,592.3c1.3,4.4,0.2,7.2-2.4,10.6C413.2,598.5,414.9,595.8,417.8,592.3z"/>
<path class="st196" d="M417.9,625.1c-0.4-2.1-0.5-4.3-2.8-5.4c1.2-2.2,2.4-4.4,4.2-7.8C420.7,617.8,421.1,621.7,417.9,625.1z"/>
<path class="st197" d="M409.9,651.9c-4.1,3.3-3.1-3.1-5.6-3c0-0.9,0.1-1.7,0.2-2.6c0.8-1.1,1-2.7,2.7-3
	C409.8,645.6,409.5,648.9,409.9,651.9z"/>
<path class="st198" d="M409.4,630.1c-3.9-4.4-3.8-8.9,0.1-13.3C409.4,621.2,409.4,625.6,409.4,630.1z"/>
<path class="st199" d="M407.2,643.3c-0.9,1-1.8,2-2.7,3c-0.1-4.6-2.4-9.7,2.4-13.4C407,636.4,407.1,639.9,407.2,643.3z"/>
<path class="st200" d="M398.7,603.2c0,3.6-0.1,7.2-0.1,10.9c-2.1,1.1-2.6,2.9-2.7,5.1c-4,3.5-6,0.5-8.1-2.4c0,0,0,0,0,0
	c0-0.9,0-1.8,0-2.7C388.9,607.9,388.8,600.4,398.7,603.2z"/>
<path class="st201" d="M387.8,616.7c2.7,0.8,5.4,1.6,8.1,2.4c2.7,2.3,3.4,5,1.8,8.6C393.2,625,386.4,624.7,387.8,616.7z"/>
<path class="st202" d="M672.5,586.3c1.7,2.8,3.4,5.5,5.2,8.3C672.2,594.1,670.3,591.5,672.5,586.3z"/>
<path class="st203" d="M363.4,552.1c-0.1,1.7-0.1,3.4-0.2,5.1c-3.3,2.8-2.4,7.6-5.2,10.6c-1,0-2,0.1-3,0.1c-0.8,0-1.5,0.1-2.2,0.3
	c-0.1-1-0.2-2-0.2-3c0-3,0.5-6.3-2.7-8.3c-0.2-3,0.6-6.2-2.7-8.2c0.8-1,1.7-1.9,2.5-2.9c1.9-1.4,3.8-1.4,5.5,0.3
	C355.4,551.7,359.6,551.6,363.4,552.1z"/>
<path class="st64" d="M355.2,546.2c-1.8-0.1-3.7-0.2-5.5-0.2c0-2.7,0-5.3,0-8.5C354.6,539.3,354.9,542.8,355.2,546.2z"/>
<path class="st204" d="M369.2,600.5c-0.1,2.7-0.2,5.4-0.3,8.1c-1.1,0.9-2.3,1.9-3.4,2.8c0.3-5.4,0.7-10.9,1-16.6
	C370,596,368.5,598.7,369.2,600.5z"/>
<path class="st205" d="M363.4,576c-0.2-4.1,0.6-7.8,3.8-11.3c3.7,4.3,0.2,7.8-1,11.3C365.2,576,364.3,576,363.4,576z"/>
<path class="st57" d="M648,619.4c0.3-1.9-3-3.7-0.2-5.6c4.5,2.4,8.2,5.4,8.5,11c0,0.9-0.1,1.8-0.1,2.7c-1.7,0-3.4,0.1-5.1,0.1
	C650.1,624.8,649,622.1,648,619.4z"/>
<path class="st45" d="M659,643.9c-4.6-4.8-2.1-10.7-2.7-16.2C661.5,632.5,657.6,638.6,659,643.9z"/>
<path class="st206" d="M385.1,584.2c0,7.2-0.1,14.4-0.1,21.6c-7.6-3.5,1.5-12.4-5.3-16.2c0-0.9,0-1.7,0-2.6
	C381.5,586,383.3,585.1,385.1,584.2z"/>
<path class="st207" d="M379.9,627c0.1-6,0.1-12.1,0.2-18.1C383.5,614.9,383.9,621,379.9,627z"/>
<path class="st208" d="M374.3,602.9c0.6-4.4-2-9.4,2.4-13.2C376.5,594.3,378.8,599.2,374.3,602.9z"/>
<path class="st170" d="M642.7,638.4c0.8,0,1.6,0,2.4,0c0,5.2,0.1,10.4,0.1,15.7C640.5,649.5,643.5,643.7,642.7,638.4z"/>
<path class="st209" d="M688.7,98.9c-29.7-10-58.7-22.3-89.5-29c32.4,2.8,63.4,10.6,92.2,26.2C692.1,98.6,691.6,99.9,688.7,98.9z"/>
<path class="st210" d="M542.5,73.9C532.2,74,522,74,511.8,74.1c1-2.6,3.1-3.1,5.5-2.8c5.8,0,11.7,0,17.6,0c2.5,0.1,5,0.2,7.5,0.3
	c0.9,0.5,1.2,1,0.9,1.5C543,73.7,542.7,73.9,542.5,73.9z"/>
<path class="st211" d="M694.9,109.7c-8.1,2.6-13.8-3.6-20.6-5.7C682.6,100.7,688.5,105.9,694.9,109.7z"/>
<path class="st212" d="M604.4,82.2c-6.4-1.7-13.3-1.2-19.2-4.9c2.1-1.9,4.3-1.7,6.5-0.4C596.4,77.8,602.8,74.3,604.4,82.2z"/>
<path class="st213" d="M542.5,73.9c0-0.8-0.1-1.6-0.1-2.3c7.3,0.4,15-2.3,21.8,2.6C556.9,74.1,549.7,74,542.5,73.9z"/>
<path class="st214" d="M667.8,98.7c-5.7,2.9-10.1-1-14.9-2.9C658.8,91.9,663.1,96,667.8,98.7z"/>
<path class="st215" d="M651.6,95.7c-4.9-1.7-9.9-3.5-14.8-5.2C643.3,87.7,648.4,88.9,651.6,95.7z"/>
<path class="st216" d="M621.4,85.1c-5.3,1.2-10-0.5-14.6-2.8C612.8,77.3,617.1,81.4,621.4,85.1z"/>
<path class="st217" d="M591.8,76.9c-2.2,0.1-4.4,0.3-6.5,0.4c-4.5-0.5-9.6,1.7-13.3-2.8C578.8,73.7,585.6,73.2,591.8,76.9z"/>
<path class="st218" d="M688.7,98.9c0.9-0.9,1.8-1.8,2.8-2.8c2.4,1.1,5.9,3.4,4.4,5.2C693.3,104.3,690.7,101,688.7,98.9z"/>
<path class="st209" d="M433.9,77c-25.8,3.9-49.1,15.8-74.1,22.3c20.3-15.3,43.7-22,68.6-25C431.4,72.8,434.1,72,433.9,77z"/>
<path class="st219" d="M433.9,77c-1.2-2.2-3.2-2.6-5.5-2.7c9.4-3.9,19.1-6.1,29.8-3.6C450.1,72.8,442,74.9,433.9,77z"/>
<path class="st220" d="M472.1,74.8c-8.3,6.5-17.6,7.8-27.7,5.2C453.3,76.5,462.5,74.6,472.1,74.8z"/>
<path class="st221" d="M349.5,120.4l-1.3,0c0,0-1.3,0-1.3,0c0.3-5.6,0.7-11.2-2.5-16.2c0-1,0.1-2,0.1-2.9c6,0.1,2.9,11.1,10.7,8.9
	c1,0.5,1.4,0.9,1.1,1.5c-0.3,0.5-0.6,0.8-1,0.8C353.4,115.1,349.7,116.4,349.5,120.4z"/>
<path class="st222" d="M429.3,85.6c-5.7,2-11,7.6-17.7,2.6c4.2-2,8.5-3.7,13.3-3.3C426.6,83.8,428,84.1,429.3,85.6z"/>
<path class="st223" d="M390.5,98.5c-5.5,2.7-10.9,5.6-17.4,5.4c4.4-5.5,10.9-6.7,17.3-8c0.8,0.5,1.1,1.1,0.8,1.7
	C391.1,98.2,390.8,98.5,390.5,98.5z"/>
<path class="st224" d="M429.3,85.6c-1.5-0.3-2.9-0.5-4.4-0.8c4.5-3.1,9.8-3.9,15.1-4.7C438.7,86.4,433.5,85.2,429.3,85.6z"/>
<path class="st225" d="M491.2,74.6c-5.7,2.9-11.3,4.3-17,0.1c1.7-0.2,3.4-0.3,5.1-0.5C483.4,72.7,487.3,72.1,491.2,74.6z"/>
<path class="st226" d="M355.3,112.4c-0.1-0.7-0.1-1.5-0.1-2.2c3.8-1.8,7.6-3.6,11.4-5.4C365.5,111.1,360.2,111.5,355.3,112.4z"/>
<path class="st227" d="M390.5,98.5c0-0.9,0-1.7-0.1-2.6c1.8-2.7,4.7-2.8,7.5-2.9c1.6-1.1,3-0.9,4.1,0.7
	C398.3,95.3,394.4,96.9,390.5,98.5z"/>
<path class="st228" d="M402.1,93.7c-1.4-0.2-2.8-0.4-4.1-0.7c4-1.6,8-3.1,12.1-4.7C409.6,93.4,405.9,93.6,402.1,93.7z"/>
<path class="st229" d="M507.6,74c-4.7,0.1-9.3,0.2-14,0.3c-0.9-0.5-1.2-1-0.9-1.5c0.3-0.5,0.6-0.7,0.9-0.7
	C498.3,72.2,503.5,69.1,507.6,74z"/>
<path class="st230" d="M493.6,72.1c0,0.8-0.1,1.5-0.1,2.3c0,0-1.1,0.3-1.1,0.3s-1.2,0-1.2,0c-4-0.1-7.9-0.3-11.9-0.4
	C483.7,71,488.7,71.7,493.6,72.1z"/>
<path class="st231" d="M407.1,410.7c-11.5,0.6-21.6-2.8-32.2-10.7c9.9-6.3,19.2-10.2,28.7-13.3C409.1,394,410.8,401.9,407.1,410.7z"
	/>
<path class="st232" d="M452.8,410.6c-3.8,2.8-7.4-0.1-11.1-0.5c-1.8-1.4-5.1-0.2-5.9-3.3c1.9-7.5,4.7-15.2-2.1-21.9
	c-0.6-1.1-0.8-2.3-0.4-3.6c7.6-4.7,13.8,0.8,20.6,2.7C462.2,393.2,460.6,402,452.8,410.6z"/>
<path class="st233" d="M452.8,410.6c2.6-8.8,5.4-17.5,1-26.5c10.9,3,17.8,11.1,26,20.1C470.2,406.6,462.3,411.6,452.8,410.6z"/>
<path class="st234" d="M407.1,410.7c-1.2-8-2.3-16-3.5-24.1c4.7-1.9,8.7-5.7,14.2-5.5c2.7,2.8,3.9,6.3,3.9,10.1
	c-1.5,5.5,1.6,10.5,2.1,15.8c-1,2.9-4.2,1.7-6,3.2C414.3,410.4,410.7,410.5,407.1,410.7z"/>
<path class="st235" d="M420.5,391.3c-2-3.1-4-6.2-2.6-10.2c5.1,0.2,10.3-4.6,15.4,0.3c-0.2,0.8,0.1,1.5,0.7,2.1
	C434,393.8,429.4,396.4,420.5,391.3z"/>
<path class="st236" d="M426.2,370.4c-1-1-1.9-2-2.9-3c8,0.1,16.1,0.2,24.1,0.3c0,1.5,0,3.1,0.1,4.6
	C440.5,369.2,433.3,370.3,426.2,370.4z"/>
<path class="st237" d="M417.9,410.2c1.9-0.9,3.8-1.8,5.7-2.7c4.2-3.2,8.5-3.3,12.7,0.1c1.8,0.9,3.6,1.7,5.4,2.6
	C433.7,410.2,425.8,410.2,417.9,410.2z"/>
<path class="st238" d="M643.3,386.6c10.8,1.6,19.6,7.7,30.8,12.5c-10.4,9.8-21.2,12.7-33.5,11.2
	C639.2,402.1,642.1,394.5,643.3,386.6z"/>
<path class="st239" d="M593.7,386.4c4-1.8,6.6-6.9,12.1-5c3,2.6,3.8,6.1,3.6,9.9c-1,5.8,3.6,9.9,4.5,15.2c-0.1,2.3-1.9,2.9-3.5,3.8
	c-5.5-1-10.7,5.6-16.4,0.8C590.1,402.9,588.2,394.7,593.7,386.4z"/>
<path class="st240" d="M643.3,386.6c3.5,8.4,0.9,16.2-2.8,23.7c-3-0.1-6-0.1-9-0.2c-1.8-1.4-5-0.3-6-3.3c1.3-7.9,5.1-16.3-4.9-21.7
	c-1.9-1.8-3.3-3.8-2.7-6.7C626.4,381.2,634.8,383.9,643.3,386.6z"/>
<path class="st241" d="M593.7,386.4c-2.6,8.3,2,16.4,0.3,24.7c-8.3-0.8-15.9-3.9-24.6-7.2C577.3,396.9,582.2,387.3,593.7,386.4z"/>
<path class="st242" d="M617.9,378.5c1.2,1.7,2.4,3.3,3.5,5c-0.9,10.7-3.3,12-13.4,7.4c-0.8-3.2-1.5-6.4-2.3-9.6
	C609.1,377.6,613.7,378.9,617.9,378.5z"/>
<path class="st19" d="M602.1,367.7c6.3,0,12.6-0.1,18.8-0.1c1,0.5,1.3,1,1,1.6c-0.3,0.6-0.6,0.9-0.9,0.9c-7.2,0.5-14.3,1.1-21.5,1.6
	C600.4,370.3,601.2,369,602.1,367.7z"/>
<path class="st243" d="M625.9,407.5c1.9,0.9,3.8,1.8,5.7,2.7c-7.1,0-14.1,0.1-21.2,0.1c0.9-0.8,1.8-1.7,2.7-2.5
	C617.3,404.1,621.5,404.3,625.9,407.5z"/>
<path class="st244" d="M621,370c0-0.8-0.1-1.7-0.1-2.5c1.8-0.1,3.7-0.2,5.5-0.3c1.8,0.9,3.6,1.9,5.4,2.8c0,0.7,0,1.4,0,2.2
	C628,372.6,624.4,372.1,621,370z"/>
<path class="st245" d="M358,567.9c0.5-4.1-2.2-9.8,5.2-10.6C363.6,561.8,362.9,565.9,358,567.9z"/>
<path class="st246" d="M372.5,579.9c-1.1-4.4-2.1-7.8,2-11.2C377,573.2,374.2,576,372.5,579.9z"/>
<path class="st247" d="M585.7,581.1c-39.7,7.6-79.4,7.2-119.1,0.1c-1.8-1.7-1.4-3.2,0.2-4.7c3.5-1,7.1,4.1,10.6,0
	c0.6-1.1,1.5-1.9,2.6-2.4c3.4-1.2,6.8-2,10.4-2c2.8,0.3,5.6,0.9,8.5,0.9c4.5,0.1,9-1.2,13.5-0.2c1.7,0.2,3.3,0.5,5,0.9
	c2.2,0.5,4.2,1.4,6.1,2.6c0.9,0.7,1.6,1.5,2.3,2.3c3.7-0.3,8.1,1.8,10.8-2.6l0,0c1,0,2.1,0,3.1,0c2.3-2,5-3,8-2.9
	c3,0.2,5.6,1.4,8.1,3c2-0.2,4-0.4,6-0.6c3.6-2.7,7-2.1,10.3,0.8c3,2.6,5.6-0.9,8.5-0.5c1-0.6,2-0.7,3-0.1
	C584.7,577.2,587.1,578.5,585.7,581.1z"/>
<path class="st178" d="M572.2,576.2c-3.4-0.2-6.9-0.5-10.3-0.7c-0.1-4.7-6.4-7.9-3.3-13.4C563.7,566.3,572.8,566.5,572.2,576.2z"/>
<path class="st248" d="M547.5,575.7c-2.5,0.1-5.1,0.1-7.6,0.2c0.4-4.7,0.8-9.3,1.2-14.1c3.4,0.7,3.7,3.6,4.5,6
	C547.9,570.1,551.2,572,547.5,575.7z"/>
<path class="st249" d="M523.8,578.3c-2-0.8-3.9-1.5-5.9-2.3c-4.5-3.6-1-8.8-2.5-13c0.7-2.9,2.4-4.8,5.1-5.8
	c0.8,4.5-1.5,9.5,2.4,13.4C526,572.9,525.2,575.6,523.8,578.3z"/>
<path class="st250" d="M523.8,578.3c-0.3-2.6-0.5-5.1-0.8-7.7c0.4-2.1,0.7-4.1,1.3-7.2c3.1,5.6,5.2,10.1,1.7,15.1
	c0,0-1.1,0.1-1.1,0.1L523.8,578.3z"/>
<path class="st32" d="M547.5,575.7c-0.7-2.6-1.3-5.2-2-7.8c6.3-0.9,8.4,3.5,10.4,8.1C553.1,575.9,550.3,575.8,547.5,575.7z"/>
<path class="st251" d="M536.7,575.8c-6.3,0-5.3-4.1-4.5-9.4C534.1,570.2,535.4,573,536.7,575.8C536.7,575.9,536.7,575.8,536.7,575.8
	z"/>
<path class="st59" d="M583.1,576.8c-0.8-0.4-1.6-0.8-2.4-1.1c-3.1-5.7-6.2-11.4-10.7-19.5c9.6,5.4,14.3,11.3,15.8,19.9
	C585.1,577.1,584.2,577.3,583.1,576.8z"/>
<path class="st252" d="M609.8,573.6c-2.5,3.9-6.1,5.3-10.6,4.9c-0.9-0.6-1.1-1.2-0.8-1.7c0.3-0.5,0.6-0.8,0.9-0.8
	c-0.9-2.8-1.9-5.6-2.8-8.5c0-0.6,0-1.1-0.1-1.7c0.1-1.2,0.2-2.3,0.3-3.5C603.8,563,606.6,568.4,609.8,573.6z"/>
<path class="st60" d="M596.4,565.8c-0.1,0.6-0.1,1.1,0.1,1.7c-9-1.4-13.2-7.6-15.6-15.6C586.1,556.6,591.3,561.2,596.4,565.8z"/>
<path class="st253" d="M599.3,576c0.1,0.8,0,1.7-0.1,2.5c-4.5,0.9-9,1.7-13.5,2.6c-0.9-1.4-1.7-2.9-2.6-4.3c0.9-0.2,1.8-0.5,2.7-0.7
	C590.3,576,594.8,576,599.3,576z"/>
<path class="st207" d="M609.8,573.6c-5.7-2.2-9.7-6.3-13.1-11.2c1.9-3.8,5.4-2.5,8.5-2.7c2.1,3.5,7.5,5.6,5,11.2
	C610.1,571.7,609.9,572.6,609.8,573.6z"/>
<path class="st254" d="M618.3,565.2c0.9,0,1.8,0,2.7,0c-1.7,2.7-1.8,5.3,0.1,7.9c-2.8-0.9-5.6-1.8-8.4-2.7
	c-1.3-3.8-6.7-5.6-5.5-10.8C612.4,558.4,614.5,563.6,618.3,565.2z"/>
<path class="st255" d="M607.2,559.7c1.7,3.6,6.2,5.9,5.5,10.8c-0.8,0.3-1.6,0.4-2.5,0.4c-1.3-3.9-5.9-6.3-5-11.2
	C605.9,559.6,606.6,559.7,607.2,559.7z"/>
<path class="st256" d="M457.6,576.4c-1.7,0.7-3.5,1.4-5.2,2c-3.6-7.6,7-9.5,6.5-15.8c2.2,0,4,0.6,5,2.7c-1.7,2.7-3.3,5.3-5,8
	C459.3,574.6,458.9,575.7,457.6,576.4z"/>
<path class="st112" d="M479.7,575.7c-0.8,0.2-1.5,0.4-2.2,0.7c-3.1-9.7,1.8-14.2,10.5-16.1c-0.1,0.6-0.1,1.1-0.1,1.7
	C486.5,567.4,484.8,572.6,479.7,575.7z"/>
<path class="st257" d="M457.6,576.4c0.4-1,0.8-2.1,1.2-3.1c3.1,0.1,6.3-0.2,8.1,3.2c-0.1,1.6-0.2,3.2-0.2,4.7
	C462.4,581.8,458.7,581.5,457.6,576.4z"/>
<path class="st258" d="M442.2,575.9c-2.7-0.9-5.5-1.9-8.2-2.8c1.7-1.6,3.4-3.2,5.1-4.8c1.9-0.7,5.2-2.5,5.6-2.1
	C447.6,570.2,442.2,572.4,442.2,575.9z"/>
<path class="st249" d="M512.7,575.9c-4.6-2.7-9.2,1-13.7,0c-0.9-0.9-1.2-2-1.2-3.2c0.5-3.6,2-6.8,3.8-9.9c6.5-10.1,9.2-0.1,13.4,2.5
	C518.4,569.7,514.8,572.6,512.7,575.9z"/>
<path class="st249" d="M479.7,575.7c1.5-5.3,3.8-10.2,8.2-13.8c1,1.1,2,2.1,3,3.2c2.4,2.8,2.4,5.7-0.1,8.4
	C487.2,575.3,483.7,576.7,479.7,575.7z"/>
<path class="st259" d="M490.7,573.6c0-2.8,0.1-5.6,0.1-8.4c2.6-4.2,5.2-1.1,7.8-0.1c2.3,2.7-0.3,5.7,0.4,8.5c0,0.7,0,1.5,0,2.2
	C496,576,492.9,576.6,490.7,573.6z"/>
<path class="st178" d="M512.7,575.9c0.8-3.6,1.5-7.1,2.3-10.7c0.3-0.7,0.5-1.4,0.4-2.2c5,3.6,1.7,8.7,2.5,13
	C516.2,576,514.4,575.9,512.7,575.9z"/>
<path class="st260" d="M499,573.6c-4.1-2.6-0.8-5.6-0.4-8.5c1-0.8,2-1.6,3-2.4C501.8,566.6,502.6,570.6,499,573.6z"/>
<path class="st261" d="M574.9,315.7c0-0.9,0.1-1.8,0.3-2.6c0.8,0.9,1.6,1.8,2.4,2.8c-0.1,0.9-0.1,1.7-0.1,2.6
	C576.7,317.5,575.8,316.6,574.9,315.7z"/>
<path class="st262" d="M585.9,313c-1,1-1.9,1.9-2.9,2.9C584,314.9,584.9,314,585.9,313z"/>
<path class="st263" d="M532.3,200c-18.5-0.9-37.1-2.2-55.5,0.7c-8.8,1.4-12.9-2.2-12.9-10.9c0-15.4,0.1-30.7,0-46.1
	c-0.1-7.7,3.8-11.1,11.2-12.7c34-7,68.1-7,102.3-1.2c10.2,1.7,14.8,6.3,14,17.2c-0.9,13.5-0.5,27.1-0.1,40.7
	c0.2,9.3-3.3,12.9-12.9,12.5C563,199.5,547.6,200,532.3,200z"/>
<path class="st89" d="M488.3,665.7c-0.8,2.7-1.6,5.3-2.4,8c-0.3,0.8-0.6,1.6-0.6,2.4c-3.9-2.8-2.1-7-2.5-10.6
	C484.6,665.6,486.4,665.6,488.3,665.7z"/>
<path class="st264" d="M453.1,597.6c-2.8-3.3-5.5-6.5-11-12.9c56.6,13.5,109.5,13.8,162.1,1.6c1.9,5.3-1.9,7-4.2,9.4
	c-16.8,12-36.1,14.1-55.9,14c-11.9,0-23.9,0-35.8,0c-5.4-0.1-10.8,0.1-16.2-0.9c-8.4-2.8-17.4-1.6-25.7-4.6
	C461.4,603.1,457.2,600.3,453.1,597.6z"/>
<path class="st265" d="M589.4,606c-8.4,9-19.7,12.3-31.1,14.2c-30.4,5-60.7,6.7-89.1-9.1c-0.6-4,2.4-4.5,5.2-5.1
	c2.1-0.2,4.2-0.2,6.3-0.2c3.6,0,7.1,0,10.4,1.6c5,1.8,10.2,0.9,15.3,1.1c12.4,0,24.9,0,37.3,0c5.4-0.1,10.9,0.5,16.2-1.2
	C569.8,608.6,579.3,600,589.4,606z"/>
<path class="st266" d="M589.4,606c-10,0.9-20.1,1.9-30.1,2.8c-3.8,1.8-7.7,0.8-11.6,1c-1.4,0-2.5-0.6-3.3-1.7
	c0.2-0.6,0.5-1.2,0.7-1.8c19-0.1,37-5.1,54.9-10.7C597.4,600.1,595.4,605,589.4,606z"/>
<path class="st267" d="M453.1,597.6c4.4,1.1,8.8,2.2,13.2,3.3c1.2,2.7-0.2,4.3-2.3,5.7c-1.2,0.4-2.2,0.1-3.1-0.7
	C457.1,604.2,454.3,601.6,453.1,597.6z"/>
<path class="st268" d="M460.8,605.9c1-0.2,1.9-0.4,2.9-0.6c4.3-1.1,9.1-4,11.1,3.1c-2.2,0.2-4.4,0.5-5.6,2.7
	C466,610.1,462.3,609.7,460.8,605.9z"/>
<path class="st269" d="M436.2,407.6c-4.2,0-8.4-0.1-12.7-0.1c-3.4-5-9.9-9.3-3.1-16.2c7,1.8,11.9-0.2,13.5-7.8
	C444.7,391,445.1,395.7,436.2,407.6z"/>
<path class="st270" d="M625.9,407.5c-4.3,0.1-8.5,0.2-12.8,0.3c-3-5.2-10.7-9-5-16.8c6.6,1.4,12.9,2.2,13.4-7.4
	C634.1,390,634.7,393.1,625.9,407.5z"/>
<path class="st271" d="M496.3,136.9c1-0.2,2-0.4,3-0.6c7-1.8,14.1-0.4,21.1-0.9c5.5,0,11,0,16.6,0c5.4,0.6,11.1-1.4,16.3,1.3
	c0.6,0.6,1.4,0.7,2.2,0.3c4-0.4,8-0.5,11.9,1c4.8,0,9.5,0.2,12.9,4.4l-0.2-0.1c6.1,14.3,2,29.2,2.5,43.9c-1.5,4.4-4.9,5.9-9.3,5.9
	c-6.7-2-13.5-0.9-20.3-1.2c-2.3,0-4.6,0-6.9-0.2c-12.4-2.9-24.8-0.2-37.3,0.2c-2.3,0-4.6,0-7,0c-6.2,0.1-12.4-0.4-18.5,1.3
	c-5.6,0.4-10.3-1.7-10.9-7.4c-1.2-12.8-1.3-25.7,0.1-38.6c0.4-3.5,3.2-5.1,5.9-6.6C484,136,490.7,140.1,496.3,136.9z"/>
<path class="st272" d="M480.7,139.8c-3.8,3.1-6.8,6.2-6.3,12.1c0.7,9.4,0.5,18.9,0.1,28.3c-0.4,7.8,3.5,10.4,10.4,10.4
	c1.9-0.9,3.8-1,5.7-0.4c0.7,0.7,1,1.4,0.8,2.2c-0.2,0.7-0.4,1.1-0.7,1.1c-21.3,0.5-21.3,0.5-21.3-20.2c0-7.2-0.2-14.4,0.1-21.5
	c0.2-5.3,0.4-11.1,7.6-12.4C478.4,138.1,479.7,138.3,480.7,139.8z"/>
<path class="st273" d="M580.2,188.2c0-15.3-0.1-30.5-0.1-45.8c2-0.3,5.4-2.2,5.3,1.1c-0.8,15.8,3.7,31.9-2.3,47.5
	C581.5,190.6,580.5,189.7,580.2,188.2z"/>
<path class="st274" d="M507.3,188.8c13.4,0,26.9-0.1,40.3-0.1c0,4.8-2.6,3.8-5.3,2.4c-7.2,0-14.4,0-21.5,0.1
	C516.1,191.3,510.7,195.8,507.3,188.8z"/>
<path class="st275" d="M507.3,188.8c4,3.8,9,1.3,13.5,2.4c-9.7,5-20.1,1.5-30.1,2.3c0-0.7,0-1.3,0-2c3-3.8,7.8-0.3,11.1-2.8
	C503.6,188.7,505.5,188.8,507.3,188.8z"/>
<path class="st276" d="M580.2,188.2c0.9,0.9,1.9,1.8,2.8,2.7c-6.6,5.7-14.4,1.6-21.6,2.5c-1-1.4-0.7-2.6,0.8-3.5
	c3.6-0.2,7.2-0.8,10.6,0.7C575.3,189.8,577.7,189,580.2,188.2z"/>
<path class="st277" d="M561.6,191.2c-0.1,0.7-0.2,1.5-0.2,2.2c-6.4-0.5-13.2,2.4-19.1-2.3c1.8-0.8,3.5-1.6,5.3-2.4
	c1.9,0,3.8,0,5.7,0C555.7,190.7,559.5,188.3,561.6,191.2z"/>
<path class="st278" d="M566.7,139c-3.9,0.3-7.8,0.4-11.2-1.9c3.6-4.1,7.4-4.2,11.3-0.5c1,0.6,1.3,1.1,0.9,1.6
	C567.4,138.7,567,139,566.7,139z"/>
<path class="st279" d="M520.7,136.3c-7.1,0.6-14.3,1.7-21.4,0c6.8-4.3,14.3-1.5,21.4-2.2c0.9,0.5,1.2,1,0.9,1.5
	C521.3,136.1,521,136.3,520.7,136.3z"/>
<path class="st280" d="M566.7,139c0-0.8,0.1-1.6,0.1-2.4c4.8,1.4,12-3.1,13.5,5.9C575.7,141.3,571.2,140.1,566.7,139z"/>
<path class="st281" d="M480.7,139.8c-1.2-0.1-2.4-0.3-3.7-0.5c5.9-4.6,12.8-2,19.2-2.4C491.7,141.4,486,139.4,480.7,139.8z"/>
<path class="st282" d="M520.7,136.3c0-0.7,0-1.5,0-2.2c5.4,0,10.9,0,16.3,0c0.9,0.5,1.2,0.9,0.9,1.4c-0.3,0.5-0.6,0.7-0.9,0.7
	C531.5,136.3,526.1,136.3,520.7,136.3z"/>
<path class="st283" d="M537,136.3c0-0.7,0-1.4,0-2.1c5.5,0.5,11.5-2.3,16.4,2.6C547.9,136.6,542.4,136.5,537,136.3z"/>
<path class="st284" d="M545.1,610.9c-13.6,1.1-27.2,1-40.9-0.1c-4.4-2.2-9.6,0.5-13.9-2c-3.4-0.2-6.7-0.4-10.1-0.6
	c2.4-6.7,7.2-3.1,11.3-2.6c5.3,0.2,10.5,0.4,15.8,0.6c12.5,3,25.4-1.2,37.8,2.3l0,0c0.9,0.5,1.2,1,0.9,1.6
	C545.7,610.7,545.4,610.9,545.1,610.9z"/>
<path class="st285" d="M545.1,608.6c-12.6-1.1-25.4,2.5-37.8-2.3c12.6,0,25.2,0,37.8,0C545.1,607.1,545.1,607.8,545.1,608.6z"/>
<path class="st286" d="M491.5,605.6c-3.8,0.8-8.2-1.1-11.3,2.6c-1.8,0.1-3.6,0.2-5.3,0.2c-3.1-3.1-7.4-2.1-11.1-3.1
	c0.8-1.5,1.7-2.9,2.5-4.4C474.5,603.4,483.5,601.8,491.5,605.6z"/>
<path class="st284" d="M490.3,608.8c4.7,0.3,9.8-1.8,13.9,2C499.4,611,494.6,611.8,490.3,608.8z"/>
<path class="st285" d="M545.1,610.9c0-0.8,0-1.5,0-2.3c4.7,0.1,9.5,0.2,14.2,0.3C554.9,612,549.9,611.1,545.1,610.9z"/>
<path class="st287" d="M561.6,191.2c-2.9-0.4-6.2,0.4-8.3-2.5c6.6-0.2,13.3-0.9,19.6,1.9C569.1,190.8,565.4,191,561.6,191.2z"/>
<path class="st288" d="M501.7,188.7c-3,3.5-7.4,1.8-11.1,2.8c-1.9-0.3-3.8-0.6-5.7-0.9C490.2,187.7,496,188.4,501.7,188.7z"/>
<path class="st289" d="M601.7,105c0,10.2,0,20.5,0,30.7c-0.1,0.1-0.2,0.1-0.3,0.2c0.1,0.1,0.2,0.2,0.3,0.3c0,0.1,0,0.2,0,0.2
	c-0.1,0-0.2,0-0.3,0c-6.6,0-13.1,0-19.7,0c-13.1,0-26.2,0-39.3,0c-0.2-0.2-0.3-0.4-0.5-0.7c-2.9-4.8-6.8-8.7-11.8-11.4
	c-11.1-6.2-25.2-4.9-35,3.3c-3,2.5-5.4,5.6-7.5,8.9c-0.2,0-0.5,0-0.7,0c-12.1,0-24.1,0-36.2,0c-0.1,0-0.2,0-0.3,0c0-0.2,0-0.3,0-0.5
	c0.6-0.2,0.3-0.5,0-0.7c0-9.9,0-19.8,0-29.8c0.3-0.4,0.3-0.8,0-1.2c0-0.2,0-0.3,0-0.5c0.3,0,0.4-0.2,0.5-0.5c0.5,0,0.9,0,1.4,0
	c0.1,0.1,0.2,0.1,0.2,0c49,0,98,0,147,0c0.2,0.3,0.5,0.3,0.7,0c0.3,0,0.6,0,0.9,0c0,0.3,0.2,0.4,0.5,0.5c0,0.2,0,0.3,0,0.5
	C601.5,104.6,601.5,104.8,601.7,105z"/>
<path class="st289" d="M450.5,202.8c0-0.4,0-0.8,0-1.2c0.6-0.2,0.5-0.7,0.5-1.1c0-9.4,0-18.9,0-28.3c0-0.4,0.1-0.9-0.5-1.1
	c0-0.2,0-0.3,0-0.5c0.1,0,0.2,0,0.3,0c0.3,0,0.6,0,0.9,0.1c0.5,0.3,1,0.2,1.5,0.2c11.3,0,22.7,0,34,0c0.7,0,1.4,0.2,2.1,0
	c3.4,4.5,7.5,8.3,12.7,10.6c9.7,4.3,19.3,3.9,28.6-1.3c4.1-2.3,7.4-5.6,10.2-9.3c19.2,0,38.5,0,57.7,0c0.5,0,1.1,0.1,1.6-0.2
	c0.5,0,0.9,0,1.4-0.1c0.1,0,0.2,0,0.3,0c0,0.2,0,0.3,0,0.5c-0.6,0.2-0.5,0.7-0.5,1.1c0,9.4,0,18.9,0,28.3c0,0.4-0.1,0.9,0.5,1.1
	c0,0.2,0,0.3,0,0.5c0,0-0.1,0.1-0.1,0.1c0,0.1,0,0.1,0.1,0.2c0,0.2,0,0.3,0,0.5c-0.3,0-0.4,0.2-0.5,0.5c-0.2,0-0.3,0-0.5,0
	c-0.4-0.3-0.9-0.2-1.4-0.2c-48.9,0-97.8,0-146.6,0c-0.5,0-1-0.1-1.4,0.2c-0.2,0-0.3,0-0.5,0C450.9,203,450.7,202.9,450.5,202.8z"/>
<path class="st290" d="M601.4,170.7c-0.5,0-0.9,0-1.4,0.1c-0.5,0-0.9,0-1.4,0c-18.1,0-36.3,0-54.4,0c-1.1,0-2.2,0-3.3,0
	c0.8-1.4,1.7-2.8,2.4-4.3c0.4-0.9,0.2-1.2-0.6-1.6c-4.6-2-9.1-4.1-13.6-6.1c0.3-1.5,0.9-2.9,1.1-4.4c0.4-3.1-0.1-6-1.1-8.9
	c4-1.9,8.1-3.9,12.1-5.8c2.2-1,2.2-1,1.3-3.1c13.1,0,26.2,0,39.3,0c6.6,0,13.1,0,19.7,0c0.1,0.1-0.1,0.5,0.3,0.4
	c0,10.9,0,21.9,0,32.8C601.3,170,601.6,170.4,601.4,170.7z"/>
<path class="st290" d="M451.7,170.7c-0.3,0-0.6,0-0.9-0.1c-0.1-0.3,0.2-0.7-0.3-0.9c0-10.9,0-21.9,0-32.8c0.4,0.1,0.2-0.3,0.3-0.4
	c12.1,0,24.1,0,36.2,0c0.2,0,0.5,0,0.7,0c-0.1,0.2-0.2,0.5-0.4,0.7c-2.4,4.6-3.6,9.4-3.7,14.6c-0.1,6.8,1.8,13.1,5.5,18.8
	c-8.6,0-17.3,0-25.9,0C459.4,170.7,455.5,170.7,451.7,170.7z"/>
<path class="st291" d="M451.4,203.3c0.4-0.3,0.9-0.2,1.4-0.2c48.9,0,97.8,0,146.6,0c0.5,0,1-0.1,1.4,0.2
	C551,203.3,501.2,203.3,451.4,203.3z"/>
<path class="st291" d="M450.5,171.2c0.6,0.2,0.5,0.7,0.5,1.1c0,9.4,0,18.9,0,28.3c0,0.4,0.1,0.9-0.5,1.1
	C450.5,191.5,450.5,181.3,450.5,171.2z"/>
<path class="st291" d="M601.7,201.7c-0.6-0.2-0.5-0.7-0.5-1.1c0-9.4,0-18.9,0-28.3c0-0.4-0.1-0.9,0.5-1.1
	C601.7,181.3,601.7,191.5,601.7,201.7z"/>
<path class="st291" d="M450.5,104.3c0.3,0.4,0.3,0.8,0,1.2C450.5,105.1,450.5,104.7,450.5,104.3z"/>
<path class="st291" d="M450.5,135.3c0.3,0.2,0.6,0.5,0,0.7C450.5,135.7,450.5,135.5,450.5,135.3z"/>
<path class="st291" d="M450.9,103.4c0,0.3-0.2,0.4-0.5,0.5C450.4,103.4,450.5,103.3,450.9,103.4z"/>
<path class="st291" d="M601.7,103.8c-0.3,0-0.4-0.2-0.5-0.5C601.6,103.3,601.8,103.4,601.7,103.8z"/>
<path class="st292" d="M450.5,169.8c0.5,0.2,0.1,0.6,0.3,0.9c-0.1,0-0.2,0-0.3,0C450.5,170.4,450.5,170.1,450.5,169.8z"/>
<path class="st292" d="M601.4,170.7c0.1-0.3-0.2-0.7,0.3-0.9c0,0.3,0,0.6,0,0.9C601.6,170.7,601.5,170.7,601.4,170.7z"/>
<path class="st291" d="M450.5,202.8c0.3,0,0.4,0.2,0.5,0.5C450.5,203.4,450.4,203.3,450.5,202.8z"/>
<path class="st291" d="M601.2,203.3c0-0.3,0.2-0.4,0.5-0.5C601.8,203.3,601.6,203.4,601.2,203.3z"/>
<path class="st291" d="M600.3,103.4c-0.2,0.3-0.5,0.3-0.7,0C599.8,103.4,600.1,103.4,600.3,103.4z"/>
<path class="st291" d="M601.7,105c-0.3-0.2-0.3-0.5,0-0.7C601.7,104.6,601.7,104.8,601.7,105z"/>
<path class="st291" d="M601.7,136.2c-0.1-0.1-0.2-0.2-0.3-0.3c0.1-0.1,0.2-0.1,0.3-0.2C601.7,135.9,601.7,136.1,601.7,136.2z"/>
<path class="st292" d="M450.8,136.5c-0.1,0.1,0.1,0.5-0.3,0.4c0-0.2,0-0.3,0-0.5C450.6,136.5,450.7,136.5,450.8,136.5z"/>
<path class="st292" d="M601.7,136.9c-0.4,0.1-0.2-0.3-0.3-0.4c0.1,0,0.2,0,0.3,0C601.7,136.6,601.7,136.8,601.7,136.9z"/>
<path class="st291" d="M452.6,103.4c-0.1,0.1-0.2,0.1-0.2,0C452.4,103.4,452.5,103.4,452.6,103.4z"/>
<path class="st291" d="M601.7,202.4c0-0.1-0.1-0.1-0.1-0.2c0,0,0,0,0.1-0.1C601.7,202.2,601.7,202.3,601.7,202.4z"/>
<path class="st293" d="M489.2,170.7c-3.8-5.7-5.7-12-5.5-18.8c0.1-5.2,1.3-10,3.7-14.6c0.1-0.2,0.2-0.5,0.4-0.7
	c2-3.3,4.4-6.4,7.5-8.9c9.8-8.2,23.9-9.5,35-3.3c5,2.8,8.8,6.6,11.8,11.4c0.1,0.2,0.3,0.4,0.5,0.7c0.9,2.1,0.9,2.1-1.3,3.1
	c-4,1.9-8.1,3.9-12.1,5.8c-0.5-0.4-0.7-1.1-1-1.6c-2.8-5.1-9.4-8.4-15.1-7.5c-11.7,1.8-17.5,14.2-11.3,24.3
	c5.5,9.1,18.7,9.8,25.2,1.4c0.8-1.1,1.3-2.3,2.2-3.3c4.5,2,9.1,4.1,13.6,6.1c0.8,0.4,1,0.7,0.6,1.6c-0.7,1.5-1.6,2.9-2.4,4.3
	c0,0.1-0.1,0.2-0.1,0.3c-2.8,3.7-6.1,7-10.2,9.3c-9.3,5.2-18.8,5.6-28.6,1.3c-5.2-2.3-9.3-6.1-12.7-10.6
	C489.2,170.8,489.2,170.7,489.2,170.7z"/>
<path class="st291" d="M540.8,170.9c0-0.1,0.1-0.2,0.1-0.3c1.1,0,2.2,0,3.3,0c18.1,0,36.3,0,54.4,0c0.5,0,0.9,0,1.4,0
	c-0.5,0.3-1.1,0.2-1.6,0.2C579.2,170.9,560,170.9,540.8,170.9z"/>
<path class="st291" d="M489.2,170.7c0,0.1,0.1,0.1,0.1,0.2c-0.7,0.2-1.4,0-2.1,0c-11.3,0-22.7,0-34,0c-0.5,0-1,0.1-1.5-0.2
	c3.9,0,7.7,0,11.6,0C471.9,170.7,480.5,170.7,489.2,170.7z"/>
<path class="st16" d="M529.1,158.7c-0.9,1-1.4,2.3-2.2,3.3c-6.5,8.4-19.7,7.6-25.2-1.4c-6.1-10.1-0.4-22.5,11.3-24.3
	c5.6-0.9,12.3,2.5,15.1,7.5c0.3,0.5,0.5,1.2,1,1.6c1,2.9,1.6,5.8,1.2,8.9C529.9,155.8,529.3,157.2,529.1,158.7z"/>
</svg>
